<svg viewBox="0 0 1000 700" xmlns="http://www.w3.org/2000/svg" font-family="'Segoe UI', system-ui, sans-serif">
  <defs>
    <linearGradient id="bg" x1="0%" y1="0%" x2="100%" y2="100%">
      <stop offset="0%" style="stop-color:#0A0A1A"/>
      <stop offset="100%" style="stop-color:#0F0F2E"/>
    </linearGradient>
  </defs>

  <rect width="1000" height="700" fill="url(#bg)" rx="16"/>

  <!-- Title -->
  <text x="500" y="38" text-anchor="middle" fill="#A78BFA" font-size="11" font-weight="700" letter-spacing="2">DIAGRAMA ENTIDAD-RELACIÓN</text>
  <text x="500" y="60" text-anchor="middle" fill="#E2E8F0" font-size="20" font-weight="800">Schema de Base de Datos — FlowTime</text>

  <!-- ==================== USER (center) ==================== -->
  <rect x="380" y="90" width="240" height="230" rx="14" fill="rgba(79,70,229,0.15)" stroke="#4F46E5" stroke-width="2"/>
  <!-- Header -->
  <rect x="380" y="90" width="240" height="36" rx="14" fill="rgba(79,70,229,0.4)"/>
  <rect x="380" y="112" width="240" height="14" fill="rgba(79,70,229,0.4)"/>
  <text x="500" y="113" text-anchor="middle" fill="#E2E8F0" font-size="13" font-weight="800">👤 User</text>
  <text x="500" y="128" text-anchor="middle" fill="#A78BFA" font-size="9">Tabla: users</text>

  <text x="396" y="148" fill="#818CF8" font-size="10" font-weight="700">🔑 id</text>
  <text x="600" y="148" text-anchor="end" fill="#64748B" font-size="9">cuid · PK</text>
  <line x1="396" y1="152" x2="604" y2="152" stroke="rgba(255,255,255,0.05)" stroke-width="1"/>

  <text x="396" y="167" fill="#E2E8F0" font-size="10">name</text>
  <text x="600" y="167" text-anchor="end" fill="#64748B" font-size="9">String?</text>
  <line x1="396" y1="171" x2="604" y2="171" stroke="rgba(255,255,255,0.05)" stroke-width="1"/>

  <text x="396" y="186" fill="#E2E8F0" font-size="10">email</text>
  <text x="600" y="186" text-anchor="end" fill="#64748B" font-size="9">String · unique</text>
  <line x1="396" y1="190" x2="604" y2="190" stroke="rgba(255,255,255,0.05)" stroke-width="1"/>

  <text x="396" y="205" fill="#E2E8F0" font-size="10">telegramId</text>
  <text x="600" y="205" text-anchor="end" fill="#64748B" font-size="9">String? · unique</text>
  <line x1="396" y1="209" x2="604" y2="209" stroke="rgba(255,255,255,0.05)" stroke-width="1"/>

  <text x="396" y="224" fill="#E2E8F0" font-size="10">timezone</text>
  <text x="600" y="224" text-anchor="end" fill="#64748B" font-size="9">String</text>
  <line x1="396" y1="228" x2="604" y2="228" stroke="rgba(255,255,255,0.05)" stroke-width="1"/>

  <text x="396" y="243" fill="#E2E8F0" font-size="10">role</text>
  <text x="600" y="243" text-anchor="end" fill="#FBBF24" font-size="9">Role enum</text>
  <line x1="396" y1="247" x2="604" y2="247" stroke="rgba(255,255,255,0.05)" stroke-width="1"/>

  <text x="396" y="262" fill="#E2E8F0" font-size="10">createdAt</text>
  <text x="600" y="262" text-anchor="end" fill="#64748B" font-size="9">DateTime</text>
  <line x1="396" y1="266" x2="604" y2="266" stroke="rgba(255,255,255,0.05)" stroke-width="1"/>

  <text x="396" y="281" fill="#E2E8F0" font-size="10">updatedAt</text>
  <text x="600" y="281" text-anchor="end" fill="#64748B" font-size="9">DateTime</text>
  <line x1="396" y1="285" x2="604" y2="285" stroke="rgba(255,255,255,0.05)" stroke-width="1"/>

  <text x="396" y="308" fill="#64748B" font-size="9">→ tasks, events, reminders, tags</text>

  <!-- ==================== TASK ==================== -->
  <rect x="30" y="90" width="210" height="250" rx="14" fill="rgba(16,185,129,0.12)" stroke="#10B981" stroke-width="1.5"/>
  <rect x="30" y="90" width="210" height="36" rx="14" fill="rgba(16,185,129,0.35)"/>
  <rect x="30" y="112" width="210" height="14" fill="rgba(16,185,129,0.35)"/>
  <text x="135" y="113" text-anchor="middle" fill="#E2E8F0" font-size="13" font-weight="800">✅ Task</text>
  <text x="135" y="128" text-anchor="middle" fill="#34D399" font-size="9">Tabla: tasks</text>

  <text x="46" y="148" fill="#34D399" font-size="10" font-weight="700">🔑 id</text>
  <text x="234" y="148" text-anchor="end" fill="#64748B" font-size="9">cuid · PK</text>
  <line x1="46" y1="152" x2="234" y2="152" stroke="rgba(255,255,255,0.05)" stroke-width="1"/>
  <text x="46" y="167" fill="#E2E8F0" font-size="10">title</text>
  <text x="234" y="167" text-anchor="end" fill="#64748B" font-size="9">String</text>
  <line x1="46" y1="171" x2="234" y2="171" stroke="rgba(255,255,255,0.05)" stroke-width="1"/>
  <text x="46" y="186" fill="#E2E8F0" font-size="10">description</text>
  <text x="234" y="186" text-anchor="end" fill="#64748B" font-size="9">String?</text>
  <line x1="46" y1="190" x2="234" y2="190" stroke="rgba(255,255,255,0.05)" stroke-width="1"/>
  <text x="46" y="205" fill="#E2E8F0" font-size="10">status</text>
  <text x="234" y="205" text-anchor="end" fill="#FBBF24" font-size="9">TaskStatus</text>
  <line x1="46" y1="209" x2="234" y2="209" stroke="rgba(255,255,255,0.05)" stroke-width="1"/>
  <text x="46" y="224" fill="#E2E8F0" font-size="10">priority</text>
  <text x="234" y="224" text-anchor="end" fill="#FBBF24" font-size="9">Priority</text>
  <line x1="46" y1="228" x2="234" y2="228" stroke="rgba(255,255,255,0.05)" stroke-width="1"/>
  <text x="46" y="243" fill="#E2E8F0" font-size="10">dueDate</text>
  <text x="234" y="243" text-anchor="end" fill="#64748B" font-size="9">DateTime?</text>
  <line x1="46" y1="247" x2="234" y2="247" stroke="rgba(255,255,255,0.05)" stroke-width="1"/>
  <text x="46" y="262" fill="#E2E8F0" font-size="10">completedAt</text>
  <text x="234" y="262" text-anchor="end" fill="#64748B" font-size="9">DateTime?</text>
  <line x1="46" y1="266" x2="234" y2="266" stroke="rgba(255,255,255,0.05)" stroke-width="1"/>
  <text x="46" y="281" fill="#E2E8F0" font-size="10">createdAt</text>
  <text x="234" y="281" text-anchor="end" fill="#64748B" font-size="9">DateTime</text>
  <line x1="46" y1="285" x2="234" y2="285" stroke="rgba(255,255,255,0.05)" stroke-width="1"/>
  <text x="46" y="300" fill="#F43F5E" font-size="10" font-weight="700">🔗 userId</text>
  <text x="234" y="300" text-anchor="end" fill="#F43F5E" font-size="9">FK → User</text>
  <line x1="46" y1="304" x2="234" y2="304" stroke="rgba(255,255,255,0.05)" stroke-width="1"/>
  <text x="46" y="326" fill="#64748B" font-size="9">→ tags (M2M), reminders</text>

  <!-- ==================== EVENT ==================== -->
  <rect x="760" y="90" width="210" height="240" rx="14" fill="rgba(14,165,233,0.12)" stroke="#0EA5E9" stroke-width="1.5"/>
  <rect x="760" y="90" width="210" height="36" rx="14" fill="rgba(14,165,233,0.35)"/>
  <rect x="760" y="112" width="210" height="14" fill="rgba(14,165,233,0.35)"/>
  <text x="865" y="113" text-anchor="middle" fill="#E2E8F0" font-size="13" font-weight="800">📅 Event</text>
  <text x="865" y="128" text-anchor="middle" fill="#38BDF8" font-size="9">Tabla: events</text>

  <text x="776" y="148" fill="#38BDF8" font-size="10" font-weight="700">🔑 id</text>
  <text x="964" y="148" text-anchor="end" fill="#64748B" font-size="9">cuid · PK</text>
  <line x1="776" y1="152" x2="964" y2="152" stroke="rgba(255,255,255,0.05)" stroke-width="1"/>
  <text x="776" y="167" fill="#E2E8F0" font-size="10">title</text>
  <text x="964" y="167" text-anchor="end" fill="#64748B" font-size="9">String</text>
  <line x1="776" y1="171" x2="964" y2="171" stroke="rgba(255,255,255,0.05)" stroke-width="1"/>
  <text x="776" y="186" fill="#E2E8F0" font-size="10">description</text>
  <text x="964" y="186" text-anchor="end" fill="#64748B" font-size="9">String?</text>
  <line x1="776" y1="190" x2="964" y2="190" stroke="rgba(255,255,255,0.05)" stroke-width="1"/>
  <text x="776" y="205" fill="#E2E8F0" font-size="10">startDate</text>
  <text x="964" y="205" text-anchor="end" fill="#64748B" font-size="9">DateTime</text>
  <line x1="776" y1="209" x2="964" y2="209" stroke="rgba(255,255,255,0.05)" stroke-width="1"/>
  <text x="776" y="224" fill="#E2E8F0" font-size="10">endDate</text>
  <text x="964" y="224" text-anchor="end" fill="#64748B" font-size="9">DateTime?</text>
  <line x1="776" y1="228" x2="964" y2="228" stroke="rgba(255,255,255,0.05)" stroke-width="1"/>
  <text x="776" y="243" fill="#E2E8F0" font-size="10">allDay</text>
  <text x="964" y="243" text-anchor="end" fill="#64748B" font-size="9">Boolean</text>
  <line x1="776" y1="247" x2="964" y2="247" stroke="rgba(255,255,255,0.05)" stroke-width="1"/>
  <text x="776" y="262" fill="#E2E8F0" font-size="10">color</text>
  <text x="964" y="262" text-anchor="end" fill="#64748B" font-size="9">String</text>
  <line x1="776" y1="266" x2="964" y2="266" stroke="rgba(255,255,255,0.05)" stroke-width="1"/>
  <text x="776" y="281" fill="#F43F5E" font-size="10" font-weight="700">🔗 userId</text>
  <text x="964" y="281" text-anchor="end" fill="#F43F5E" font-size="9">FK → User</text>
  <line x1="776" y1="285" x2="964" y2="285" stroke="rgba(255,255,255,0.05)" stroke-width="1"/>
  <text x="776" y="316" fill="#64748B" font-size="9">→ reminders</text>

  <!-- ==================== TAG ==================== -->
  <rect x="30" y="430" width="180" height="160" rx="14" fill="rgba(245,158,11,0.12)" stroke="#F59E0B" stroke-width="1.5"/>
  <rect x="30" y="430" width="180" height="36" rx="14" fill="rgba(245,158,11,0.35)"/>
  <rect x="30" y="452" width="180" height="14" fill="rgba(245,158,11,0.35)"/>
  <text x="120" y="453" text-anchor="middle" fill="#E2E8F0" font-size="13" font-weight="800">🏷️ Tag</text>
  <text x="120" y="468" text-anchor="middle" fill="#FBBF24" font-size="9">Tabla: tags</text>
  <text x="46" y="488" fill="#FBBF24" font-size="10" font-weight="700">🔑 id</text>
  <text x="204" y="488" text-anchor="end" fill="#64748B" font-size="9">cuid · PK</text>
  <line x1="46" y1="492" x2="204" y2="492" stroke="rgba(255,255,255,0.05)" stroke-width="1"/>
  <text x="46" y="507" fill="#E2E8F0" font-size="10">name</text>
  <text x="204" y="507" text-anchor="end" fill="#64748B" font-size="9">String</text>
  <line x1="46" y1="511" x2="204" y2="511" stroke="rgba(255,255,255,0.05)" stroke-width="1"/>
  <text x="46" y="526" fill="#E2E8F0" font-size="10">color</text>
  <text x="204" y="526" text-anchor="end" fill="#64748B" font-size="9">String</text>
  <line x1="46" y1="530" x2="204" y2="530" stroke="rgba(255,255,255,0.05)" stroke-width="1"/>
  <text x="46" y="545" fill="#F43F5E" font-size="10" font-weight="700">🔗 userId</text>
  <text x="204" y="545" text-anchor="end" fill="#F43F5E" font-size="9">FK → User</text>
  <line x1="46" y1="549" x2="204" y2="549" stroke="rgba(255,255,255,0.05)" stroke-width="1"/>
  <text x="46" y="572" fill="#64748B" font-size="9">↔ tasks (many-to-many)</text>

  <!-- ==================== REMINDER ==================== -->
  <rect x="380" y="430" width="240" height="220" rx="14" fill="rgba(244,63,94,0.12)" stroke="#F43F5E" stroke-width="1.5"/>
  <rect x="380" y="430" width="240" height="36" rx="14" fill="rgba(244,63,94,0.35)"/>
  <rect x="380" y="452" width="240" height="14" fill="rgba(244,63,94,0.35)"/>
  <text x="500" y="453" text-anchor="middle" fill="#E2E8F0" font-size="13" font-weight="800">⏰ Reminder</text>
  <text x="500" y="468" text-anchor="middle" fill="#FB7185" font-size="9">Tabla: reminders</text>
  <text x="396" y="488" fill="#FB7185" font-size="10" font-weight="700">🔑 id</text>
  <text x="614" y="488" text-anchor="end" fill="#64748B" font-size="9">cuid · PK</text>
  <line x1="396" y1="492" x2="614" y2="492" stroke="rgba(255,255,255,0.05)" stroke-width="1"/>
  <text x="396" y="507" fill="#E2E8F0" font-size="10">message</text>
  <text x="614" y="507" text-anchor="end" fill="#64748B" font-size="9">String?</text>
  <line x1="396" y1="511" x2="614" y2="511" stroke="rgba(255,255,255,0.05)" stroke-width="1"/>
  <text x="396" y="526" fill="#E2E8F0" font-size="10">scheduledAt</text>
  <text x="614" y="526" text-anchor="end" fill="#64748B" font-size="9">DateTime</text>
  <line x1="396" y1="530" x2="614" y2="530" stroke="rgba(255,255,255,0.05)" stroke-width="1"/>
  <text x="396" y="545" fill="#E2E8F0" font-size="10">sent</text>
  <text x="614" y="545" text-anchor="end" fill="#64748B" font-size="9">Boolean</text>
  <line x1="396" y1="549" x2="614" y2="549" stroke="rgba(255,255,255,0.05)" stroke-width="1"/>
  <text x="396" y="564" fill="#E2E8F0" font-size="10">channel</text>
  <text x="614" y="564" text-anchor="end" fill="#FBBF24" font-size="9">ReminderChannel</text>
  <line x1="396" y1="568" x2="614" y2="568" stroke="rgba(255,255,255,0.05)" stroke-width="1"/>
  <text x="396" y="583" fill="#F43F5E" font-size="10" font-weight="700">🔗 userId</text>
  <text x="614" y="583" text-anchor="end" fill="#F43F5E" font-size="9">FK → User</text>
  <line x1="396" y1="587" x2="614" y2="587" stroke="rgba(255,255,255,0.05)" stroke-width="1"/>
  <text x="396" y="602" fill="#F43F5E" font-size="10">🔗 taskId</text>
  <text x="614" y="602" text-anchor="end" fill="#F43F5E" font-size="9">FK → Task?</text>
  <line x1="396" y1="606" x2="614" y2="606" stroke="rgba(255,255,255,0.05)" stroke-width="1"/>
  <text x="396" y="621" fill="#F43F5E" font-size="10">🔗 eventId</text>
  <text x="614" y="621" text-anchor="end" fill="#F43F5E" font-size="9">FK → Event?</text>
  <line x1="396" y1="625" x2="614" y2="625" stroke="rgba(255,255,255,0.05)" stroke-width="1"/>
  <text x="396" y="640" fill="#64748B" font-size="9">Enviado por Telegram / Email / Push</text>

  <!-- ==================== ENUMS ==================== -->
  <rect x="760" y="430" width="210" height="230" rx="14" fill="rgba(124,58,237,0.10)" stroke="#7C3AED" stroke-width="1.5" stroke-dasharray="6,3"/>
  <text x="865" y="458" text-anchor="middle" fill="#A78BFA" font-size="11" font-weight="700">ENUMERACIONES</text>

  <text x="776" y="480" fill="#A78BFA" font-size="9" font-weight="700">TaskStatus</text>
  <text x="776" y="494" fill="#64748B" font-size="9">PENDING · IN_PROGRESS</text>
  <text x="776" y="507" fill="#64748B" font-size="9">COMPLETED · CANCELLED</text>

  <text x="776" y="528" fill="#A78BFA" font-size="9" font-weight="700">Priority</text>
  <text x="776" y="542" fill="#64748B" font-size="9">LOW · MEDIUM · HIGH · URGENT</text>

  <text x="776" y="563" fill="#A78BFA" font-size="9" font-weight="700">ReminderChannel</text>
  <text x="776" y="577" fill="#64748B" font-size="9">TELEGRAM · EMAIL · PUSH</text>

  <text x="776" y="598" fill="#A78BFA" font-size="9" font-weight="700">Role</text>
  <text x="776" y="612" fill="#64748B" font-size="9">ADMIN · USER</text>

  <!-- ==================== RELATIONS ==================== -->
  <!-- User → Task -->
  <line x1="380" y1="200" x2="240" y2="200" stroke="#F43F5E" stroke-width="1.5" stroke-dasharray="5,3"/>
  <text x="306" y="194" text-anchor="middle" fill="#F43F5E" font-size="9">1</text>
  <text x="252" y="194" text-anchor="middle" fill="#F43F5E" font-size="9">N</text>

  <!-- User → Event -->
  <line x1="620" y1="200" x2="760" y2="200" stroke="#F43F5E" stroke-width="1.5" stroke-dasharray="5,3"/>
  <text x="694" y="194" text-anchor="middle" fill="#F43F5E" font-size="9">1</text>
  <text x="750" y="194" text-anchor="middle" fill="#F43F5E" font-size="9">N</text>

  <!-- User → Reminder -->
  <line x1="500" y1="320" x2="500" y2="430" stroke="#F43F5E" stroke-width="1.5" stroke-dasharray="5,3"/>
  <text x="508" y="374" fill="#F43F5E" font-size="9">1:N</text>

  <!-- User → Tag -->
  <line x1="380" y1="270" x2="210" y2="510" stroke="#F43F5E" stroke-width="1.5" stroke-dasharray="5,3"/>
  <text x="268" y="404" fill="#F43F5E" font-size="9">1:N</text>

  <!-- Task → Reminder -->
  <line x1="135" y1="340" x2="135" y2="400" stroke="#FB7185" stroke-width="1" stroke-dasharray="4,3"/>
  <line x1="135" y1="400" x2="450" y2="430" stroke="#FB7185" stroke-width="1" stroke-dasharray="4,3"/>
  <text x="220" y="414" fill="#FB7185" font-size="9">1:N</text>

  <!-- Event → Reminder -->
  <line x1="865" y1="330" x2="865" y2="390" stroke="#FB7185" stroke-width="1" stroke-dasharray="4,3"/>
  <line x1="865" y1="390" x2="560" y2="430" stroke="#FB7185" stroke-width="1" stroke-dasharray="4,3"/>
  <text x="740" y="418" fill="#FB7185" font-size="9">1:N</text>

  <!-- Task <-> Tag M2M -->
  <line x1="210" y1="500" x2="380" y2="500" stroke="#F59E0B" stroke-width="1.5" stroke-dasharray="5,3"/>
  <text x="280" y="493" text-anchor="middle" fill="#FBBF24" font-size="9">N:M</text>

  <!-- Footer -->
  <text x="500" y="690" text-anchor="middle" fill="#334155" font-size="9">FlowTime — Schema Entidad-Relación v1.0 · Prisma + Neon Postgres · 2026</text>
</svg>
