<svg viewBox="0 0 960 680" xmlns="http://www.w3.org/2000/svg" font-family="'Segoe UI', system-ui, sans-serif">
  <defs>
    <linearGradient id="bg" x1="0%" y1="0%" x2="100%" y2="100%">
      <stop offset="0%" style="stop-color:#0A0A1A"/><stop offset="100%" style="stop-color:#0F0F2E"/>
    </linearGradient>
    <marker id="arr" markerWidth="8" markerHeight="6" refX="7" refY="3" orient="auto">
      <path d="M0,0 L8,3 L0,6 Z" fill="#64748B"/>
    </marker>
    <marker id="arrI" markerWidth="10" markerHeight="8" refX="1" refY="4" orient="auto">
      <path d="M8,0 L0,4 L8,8 Z" fill="none" stroke="#4F46E5" stroke-width="1.5"/>
    </marker>
  </defs>
  <rect width="960" height="680" fill="url(#bg)" rx="16"/>

  <text x="480" y="34" text-anchor="middle" fill="#A78BFA" font-size="11" font-weight="700" letter-spacing="2">UML — DIAGRAMA DE COMPONENTES</text>
  <text x="480" y="56" text-anchor="middle" fill="#E2E8F0" font-size="18" font-weight="800">FlowTime — Component Diagram</text>

  <!-- ══════ PACKAGE: FRONTEND ══════ -->
  <rect x="20" y="76" width="280" height="440" rx="14" fill="rgba(79,70,229,0.05)" stroke="rgba(79,70,229,0.3)" stroke-width="1.5" stroke-dasharray="6,3"/>
  <text x="36" y="96" fill="#818CF8" font-size="10" font-weight="700" letter-spacing="1">«package» FRONTEND (Next.js App Router)</text>

  <!-- Component: BottomNav -->
  <rect x="36" y="106" width="180" height="44" rx="8" fill="rgba(79,70,229,0.15)" stroke="#4F46E5" stroke-width="1.5"/>
  <rect x="188" y="118" width="10" height="20" rx="2" fill="rgba(79,70,229,0.4)" stroke="#4F46E5" stroke-width="1"/>
  <rect x="191" y="121" width="4" height="6" rx="1" fill="rgba(79,70,229,0.6)"/>
  <rect x="191" y="130" width="4" height="6" rx="1" fill="rgba(79,70,229,0.6)"/>
  <text x="48" y="132" fill="#818CF8" font-size="11" font-weight="700">«component»</text>
  <text x="48" y="144" fill="#E2E8F0" font-size="11">BottomNav</text>

  <!-- Component: Dashboard Page -->
  <rect x="36" y="162" width="180" height="44" rx="8" fill="rgba(79,70,229,0.12)" stroke="#4F46E5" stroke-width="1.5"/>
  <rect x="188" y="174" width="10" height="20" rx="2" fill="rgba(79,70,229,0.4)" stroke="#4F46E5" stroke-width="1"/>
  <text x="48" y="178" fill="#818CF8" font-size="11" font-weight="700">«component»</text>
  <text x="48" y="190" fill="#E2E8F0" font-size="11">DashboardPage</text>

  <!-- Component: TasksPage -->
  <rect x="36" y="218" width="180" height="44" rx="8" fill="rgba(79,70,229,0.12)" stroke="#4F46E5" stroke-width="1.5"/>
  <rect x="188" y="230" width="10" height="20" rx="2" fill="rgba(79,70,229,0.4)" stroke="#4F46E5" stroke-width="1"/>
  <text x="48" y="234" fill="#818CF8" font-size="11" font-weight="700">«component»</text>
  <text x="48" y="246" fill="#E2E8F0" font-size="11">TasksPage + TaskForm</text>

  <!-- Component: CalendarPage -->
  <rect x="36" y="274" width="180" height="44" rx="8" fill="rgba(79,70,229,0.12)" stroke="#4F46E5" stroke-width="1.5"/>
  <rect x="188" y="286" width="10" height="20" rx="2" fill="rgba(79,70,229,0.4)" stroke="#4F46E5" stroke-width="1"/>
  <text x="48" y="290" fill="#818CF8" font-size="11" font-weight="700">«component»</text>
  <text x="48" y="302" fill="#E2E8F0" font-size="11">CalendarPage</text>

  <!-- Component: HistoryPage -->
  <rect x="36" y="330" width="180" height="44" rx="8" fill="rgba(79,70,229,0.12)" stroke="#4F46E5" stroke-width="1.5"/>
  <rect x="188" y="342" width="10" height="20" rx="2" fill="rgba(79,70,229,0.4)" stroke="#4F46E5" stroke-width="1"/>
  <text x="48" y="346" fill="#818CF8" font-size="11" font-weight="700">«component»</text>
  <text x="48" y="358" fill="#E2E8F0" font-size="11">HistoryPage</text>

  <!-- Component: SettingsPage -->
  <rect x="36" y="386" width="180" height="44" rx="8" fill="rgba(79,70,229,0.12)" stroke="#4F46E5" stroke-width="1.5"/>
  <rect x="188" y="398" width="10" height="20" rx="2" fill="rgba(79,70,229,0.4)" stroke="#4F46E5" stroke-width="1"/>
  <text x="48" y="402" fill="#818CF8" font-size="11" font-weight="700">«component»</text>
  <text x="48" y="414" fill="#E2E8F0" font-size="11">SettingsPage</text>

  <!-- Component: GlassCard / UI Kit -->
  <rect x="36" y="442" width="180" height="44" rx="8" fill="rgba(79,70,229,0.08)" stroke="rgba(79,70,229,0.3)" stroke-width="1" stroke-dasharray="4,3"/>
  <rect x="188" y="454" width="10" height="20" rx="2" fill="rgba(79,70,229,0.3)" stroke="#4F46E5" stroke-width="1"/>
  <text x="48" y="458" fill="#818CF8" font-size="11" font-weight="700">«component»</text>
  <text x="48" y="470" fill="#94A3B8" font-size="11">UI Kit (GlassCard, Modal...)</text>

  <!-- ══════ PACKAGE: API LAYER ══════ -->
  <rect x="340" y="76" width="260" height="440" rx="14" fill="rgba(14,165,233,0.04)" stroke="rgba(14,165,233,0.3)" stroke-width="1.5" stroke-dasharray="6,3"/>
  <text x="356" y="96" fill="#38BDF8" font-size="10" font-weight="700" letter-spacing="1">«package» API LAYER (Next.js Routes)</text>

  <!-- /api/auth -->
  <rect x="356" y="106" width="220" height="44" rx="8" fill="rgba(14,165,233,0.12)" stroke="#0EA5E9" stroke-width="1.5"/>
  <rect x="548" y="118" width="10" height="20" rx="2" fill="rgba(14,165,233,0.4)" stroke="#0EA5E9" stroke-width="1"/>
  <text x="368" y="122" fill="#38BDF8" font-size="11" font-weight="700">«component»</text>
  <text x="368" y="135" fill="#E2E8F0" font-size="10">/api/auth/[...nextauth]</text>
  <text x="368" y="147" fill="#64748B" font-size="9">NextAuth v5 handler</text>

  <!-- /api/tasks -->
  <rect x="356" y="162" width="220" height="44" rx="8" fill="rgba(14,165,233,0.12)" stroke="#0EA5E9" stroke-width="1.5"/>
  <rect x="548" y="174" width="10" height="20" rx="2" fill="rgba(14,165,233,0.4)" stroke="#0EA5E9" stroke-width="1"/>
  <text x="368" y="178" fill="#38BDF8" font-size="11" font-weight="700">«component»</text>
  <text x="368" y="191" fill="#E2E8F0" font-size="10">/api/tasks  GET · POST · PUT · DELETE</text>

  <!-- /api/events -->
  <rect x="356" y="218" width="220" height="44" rx="8" fill="rgba(14,165,233,0.12)" stroke="#0EA5E9" stroke-width="1.5"/>
  <rect x="548" y="230" width="10" height="20" rx="2" fill="rgba(14,165,233,0.4)" stroke="#0EA5E9" stroke-width="1"/>
  <text x="368" y="234" fill="#38BDF8" font-size="11" font-weight="700">«component»</text>
  <text x="368" y="247" fill="#E2E8F0" font-size="10">/api/events  GET · POST · PUT</text>

  <!-- /api/reminders -->
  <rect x="356" y="274" width="220" height="44" rx="8" fill="rgba(14,165,233,0.12)" stroke="#0EA5E9" stroke-width="1.5"/>
  <rect x="548" y="286" width="10" height="20" rx="2" fill="rgba(14,165,233,0.4)" stroke="#0EA5E9" stroke-width="1"/>
  <text x="368" y="290" fill="#38BDF8" font-size="11" font-weight="700">«component»</text>
  <text x="368" y="303" fill="#E2E8F0" font-size="10">/api/reminders  POST · PATCH</text>

  <!-- /api/telegram/webhook -->
  <rect x="356" y="330" width="220" height="52" rx="8" fill="rgba(14,165,233,0.18)" stroke="#0EA5E9" stroke-width="2"/>
  <rect x="548" y="342" width="10" height="28" rx="2" fill="rgba(14,165,233,0.4)" stroke="#0EA5E9" stroke-width="1"/>
  <text x="368" y="348" fill="#38BDF8" font-size="11" font-weight="700">«component»</text>
  <text x="368" y="361" fill="#E2E8F0" font-size="11">/api/telegram/webhook</text>
  <text x="368" y="375" fill="#64748B" font-size="9">Grammy handler · Whisper</text>

  <!-- /api/cron/reminders -->
  <rect x="356" y="394" width="220" height="52" rx="8" fill="rgba(245,158,11,0.15)" stroke="#F59E0B" stroke-width="1.5"/>
  <rect x="548" y="406" width="10" height="28" rx="2" fill="rgba(245,158,11,0.4)" stroke="#F59E0B" stroke-width="1"/>
  <text x="368" y="412" fill="#FBBF24" font-size="11" font-weight="700">«component»</text>
  <text x="368" y="425" fill="#E2E8F0" font-size="11">/api/cron/reminders</text>
  <text x="368" y="439" fill="#64748B" font-size="9">Vercel Cron · cada minuto</text>

  <!-- lib/prisma -->
  <rect x="356" y="458" width="220" height="44" rx="8" fill="rgba(16,185,129,0.10)" stroke="#10B981" stroke-width="1.5"/>
  <rect x="548" y="470" width="10" height="20" rx="2" fill="rgba(16,185,129,0.4)" stroke="#10B981" stroke-width="1"/>
  <text x="368" y="474" fill="#34D399" font-size="11" font-weight="700">«component»</text>
  <text x="368" y="487" fill="#E2E8F0" font-size="10">lib/prisma.ts  (singleton client)</text>

  <!-- ══════ PACKAGE: EXTERNOS ══════ -->
  <rect x="640" y="76" width="300" height="440" rx="14" fill="rgba(124,58,237,0.04)" stroke="rgba(124,58,237,0.3)" stroke-width="1.5" stroke-dasharray="6,3"/>
  <text x="656" y="96" fill="#A78BFA" font-size="10" font-weight="700" letter-spacing="1">«package» SERVICIOS EXTERNOS</text>

  <!-- NextAuth -->
  <rect x="656" y="106" width="264" height="52" rx="8" fill="rgba(124,58,237,0.15)" stroke="#7C3AED" stroke-width="1.5"/>
  <text x="668" y="124" fill="#A78BFA" font-size="11" font-weight="700">«subsystem» NextAuth v5</text>
  <text x="668" y="140" fill="#94A3B8" font-size="10">Google OAuth · JWT · Session</text>
  <text x="668" y="153" fill="#64748B" font-size="9">adapter: Prisma</text>

  <!-- Neon Postgres -->
  <rect x="656" y="170" width="264" height="52" rx="8" fill="rgba(16,185,129,0.15)" stroke="#10B981" stroke-width="1.5"/>
  <text x="668" y="188" fill="#34D399" font-size="11" font-weight="700">«subsystem» Neon Postgres</text>
  <text x="668" y="204" fill="#94A3B8" font-size="10">Serverless Postgres</text>
  <text x="668" y="217" fill="#64748B" font-size="9">tables: users, tasks, events, reminders, tags</text>

  <!-- Grammy -->
  <rect x="656" y="234" width="264" height="52" rx="8" fill="rgba(14,165,233,0.15)" stroke="#0EA5E9" stroke-width="1.5"/>
  <text x="668" y="252" fill="#38BDF8" font-size="11" font-weight="700">«subsystem» Grammy</text>
  <text x="668" y="268" fill="#94A3B8" font-size="10">Bot Framework · Webhook mode</text>
  <text x="668" y="281" fill="#64748B" font-size="9">Telegram Bot API v7</text>

  <!-- Whisper -->
  <rect x="656" y="298" width="264" height="52" rx="8" fill="rgba(124,58,237,0.15)" stroke="#7C3AED" stroke-width="1.5"/>
  <text x="668" y="316" fill="#A78BFA" font-size="11" font-weight="700">«subsystem» OpenAI Whisper</text>
  <text x="668" y="332" fill="#94A3B8" font-size="10">Transcripción voz → texto ES</text>
  <text x="668" y="345" fill="#64748B" font-size="9">$0.006/min · REST API</text>

  <!-- Vercel Cron -->
  <rect x="656" y="362" width="264" height="52" rx="8" fill="rgba(245,158,11,0.15)" stroke="#F59E0B" stroke-width="1.5"/>
  <text x="668" y="380" fill="#FBBF24" font-size="11" font-weight="700">«subsystem» Vercel Cron</text>
  <text x="668" y="396" fill="#94A3B8" font-size="10">Scheduler · cada minuto</text>
  <text x="668" y="409" fill="#64748B" font-size="9">GET /api/cron/reminders</text>

  <!-- Framer Motion -->
  <rect x="656" y="426" width="264" height="44" rx="8" fill="rgba(244,63,94,0.10)" stroke="#F43F5E" stroke-width="1.5"/>
  <text x="668" y="444" fill="#FB7185" font-size="11" font-weight="700">«library» Framer Motion</text>
  <text x="668" y="458" fill="#94A3B8" font-size="10">Glassmorphism · Animaciones 3D</text>

  <!-- ══════ CONNECTIONS ══════ -->
  <!-- Frontend → API -->
  <line x1="216" y1="184" x2="356" y2="184" stroke="#64748B" stroke-width="1.5" stroke-dasharray="5,3" marker-end="url(#arr)"/>
  <line x1="216" y1="240" x2="356" y2="240" stroke="#64748B" stroke-width="1.5" stroke-dasharray="5,3" marker-end="url(#arr)"/>
  <line x1="216" y1="296" x2="356" y2="296" stroke="#64748B" stroke-width="1.5" stroke-dasharray="5,3" marker-end="url(#arr)"/>
  <text x="284" y="178" text-anchor="middle" fill="#475569" font-size="8">fetch()</text>

  <!-- API → Externos -->
  <line x1="558" y1="132" x2="656" y2="132" stroke="#64748B" stroke-width="1.5" stroke-dasharray="5,3" marker-end="url(#arr)"/>
  <line x1="558" y1="200" x2="656" y2="200" stroke="#64748B" stroke-width="1.5" stroke-dasharray="5,3" marker-end="url(#arr)"/>
  <line x1="558" y1="350" x2="656" y2="260" stroke="#64748B" stroke-width="1.5" stroke-dasharray="5,3" marker-end="url(#arr)"/>
  <line x1="558" y1="358" x2="656" y2="316" stroke="#64748B" stroke-width="1.5" stroke-dasharray="5,3" marker-end="url(#arr)"/>
  <line x1="558" y1="420" x2="656" y2="388" stroke="#64748B" stroke-width="1.5" stroke-dasharray="5,3" marker-end="url(#arr)"/>
  <!-- lib/prisma → Neon -->
  <line x1="558" y1="480" x2="656" y2="196" stroke="#10B981" stroke-width="1" stroke-dasharray="4,3" marker-end="url(#arr)"/>

  <!-- Frontend → Framer Motion -->
  <line x1="216" y1="464" x2="640" y2="448" stroke="#F43F5E" stroke-width="1" stroke-dasharray="4,3" marker-end="url(#arr)"/>

  <text x="480" y="670" text-anchor="middle" fill="#334155" font-size="9">FlowTime — UML Componentes v1.0 · 2026</text>
</svg>
