<svg viewBox="0 0 960 660" xmlns="http://www.w3.org/2000/svg" font-family="'Segoe UI', system-ui, sans-serif">
  <defs>
    <linearGradient id="bg" x1="0%" y1="0%" x2="100%" y2="100%">
      <stop offset="0%" style="stop-color:#0A0A1A"/><stop offset="100%" style="stop-color:#0F0F2E"/>
    </linearGradient>
    <marker id="arr" markerWidth="8" markerHeight="6" refX="7" refY="3" orient="auto">
      <path d="M0,0 L8,3 L0,6 Z" fill="#64748B"/>
    </marker>
    <marker id="arrT" markerWidth="8" markerHeight="6" refX="7" refY="3" orient="auto">
      <path d="M0,0 L8,3 L0,6 Z" fill="#38BDF8"/>
    </marker>
    <marker id="arrG" markerWidth="8" markerHeight="6" refX="7" refY="3" orient="auto">
      <path d="M0,0 L8,3 L0,6 Z" fill="#34D399"/>
    </marker>
    <marker id="arrY" markerWidth="8" markerHeight="6" refX="7" refY="3" orient="auto">
      <path d="M0,0 L8,3 L0,6 Z" fill="#FBBF24"/>
    </marker>
    <filter id="glow"><feGaussianBlur stdDeviation="4" result="b"/><feComposite in="SourceGraphic" in2="b" operator="over"/></filter>
  </defs>

  <rect width="960" height="660" fill="url(#bg)" rx="16"/>

  <text x="480" y="34" text-anchor="middle" fill="#A78BFA" font-size="11" font-weight="700" letter-spacing="2">UML — DIAGRAMA DE DESPLIEGUE</text>
  <text x="480" y="56" text-anchor="middle" fill="#E2E8F0" font-size="18" font-weight="800">FlowTime — Deployment Diagram</text>

  <!-- ══════ NODE: DISPOSITIVOS CLIENTE ══════ -->

  <!-- Computador -->
  <rect x="20" y="80" width="170" height="160" rx="14" fill="rgba(79,70,229,0.08)" stroke="#4F46E5" stroke-width="1.5"/>
  <!-- 3D corner decoration -->
  <line x1="190" y1="80" x2="200" y2="70" stroke="#4F46E5" stroke-width="1" opacity="0.5"/>
  <line x1="200" y1="70" x2="200" y2="232" stroke="#4F46E5" stroke-width="1" opacity="0.5"/>
  <line x1="190" y1="240" x2="200" y2="232" stroke="#4F46E5" stroke-width="1" opacity="0.5"/>
  <text x="105" y="100" text-anchor="middle" fill="#4F46E5" font-size="10" font-weight="700">«device»</text>
  <text x="105" y="114" text-anchor="middle" fill="#E2E8F0" font-size="12" font-weight="700">Computador</text>
  <text x="105" y="128" text-anchor="middle" fill="#64748B" font-size="9">Windows / macOS</text>
  <!-- Artifact -->
  <rect x="36" y="140" width="138" height="40" rx="8" fill="rgba(79,70,229,0.18)" stroke="rgba(79,70,229,0.4)" stroke-width="1"/>
  <text x="46" y="157" fill="#818CF8" font-size="10" font-weight="700">«artifact»</text>
  <text x="46" y="170" fill="#E2E8F0" font-size="10">Browser (Chrome/Edge)</text>
  <!-- Artifact 2 -->
  <rect x="36" y="188" width="138" height="36" rx="8" fill="rgba(79,70,229,0.12)" stroke="rgba(79,70,229,0.3)" stroke-width="1"/>
  <text x="46" y="204" fill="#818CF8" font-size="10" font-weight="700">«artifact»</text>
  <text x="46" y="217" fill="#E2E8F0" font-size="10">PWA (instalada)</text>

  <!-- Celular -->
  <rect x="20" y="260" width="170" height="170" rx="14" fill="rgba(14,165,233,0.08)" stroke="#0EA5E9" stroke-width="1.5"/>
  <line x1="190" y1="260" x2="200" y2="250" stroke="#0EA5E9" stroke-width="1" opacity="0.5"/>
  <line x1="200" y1="250" x2="200" y2="432" stroke="#0EA5E9" stroke-width="1" opacity="0.5"/>
  <line x1="190" y1="430" x2="200" y2="432" stroke="#0EA5E9" stroke-width="1" opacity="0.5"/>
  <text x="105" y="280" text-anchor="middle" fill="#0EA5E9" font-size="10" font-weight="700">«device»</text>
  <text x="105" y="294" text-anchor="middle" fill="#E2E8F0" font-size="12" font-weight="700">Celular</text>
  <text x="105" y="308" text-anchor="middle" fill="#64748B" font-size="9">Android / iOS</text>
  <rect x="36" y="320" width="138" height="40" rx="8" fill="rgba(14,165,233,0.18)" stroke="rgba(14,165,233,0.4)" stroke-width="1"/>
  <text x="46" y="337" fill="#38BDF8" font-size="10" font-weight="700">«artifact»</text>
  <text x="46" y="350" fill="#E2E8F0" font-size="10">Telegram App</text>
  <rect x="36" y="368" width="138" height="40" rx="8" fill="rgba(14,165,233,0.12)" stroke="rgba(14,165,233,0.3)" stroke-width="1"/>
  <text x="46" y="385" fill="#38BDF8" font-size="10" font-weight="700">«artifact»</text>
  <text x="46" y="398" fill="#E2E8F0" font-size="10">PWA Móvil</text>

  <!-- ══════ NODE: VERCEL ══════ -->
  <rect x="250" y="80" width="340" height="420" rx="14" fill="rgba(79,70,229,0.06)" stroke="rgba(79,70,229,0.35)" stroke-width="2"/>
  <line x1="590" y1="80" x2="604" y2="66" stroke="#4F46E5" stroke-width="1.5" opacity="0.6"/>
  <line x1="604" y1="66" x2="604" y2="500" stroke="#4F46E5" stroke-width="1.5" opacity="0.6"/>
  <line x1="590" y1="500" x2="604" y2="500" stroke="#4F46E5" stroke-width="1.5" opacity="0.6"/>
  <text x="420" y="102" text-anchor="middle" fill="#818CF8" font-size="10" font-weight="700">«execution environment»</text>
  <text x="420" y="118" text-anchor="middle" fill="#E2E8F0" font-size="14" font-weight="800">Vercel Platform</text>
  <text x="420" y="132" text-anchor="middle" fill="#64748B" font-size="9">Edge Network · Serverless Functions · CDN</text>

  <!-- Sub-node: Next.js App -->
  <rect x="266" y="142" width="308" height="180" rx="10" fill="rgba(79,70,229,0.10)" stroke="rgba(79,70,229,0.25)" stroke-width="1.5"/>
  <text x="420" y="160" text-anchor="middle" fill="#818CF8" font-size="9" font-weight="700">«node» Next.js 15 Application</text>

  <!-- Artifacts inside -->
  <rect x="278" y="168" width="130" height="36" rx="7" fill="rgba(79,70,229,0.18)" stroke="rgba(79,70,229,0.4)" stroke-width="1"/>
  <text x="288" y="183" fill="#818CF8" font-size="9" font-weight="700">«artifact»</text>
  <text x="288" y="196" fill="#E2E8F0" font-size="9">App Router Pages</text>

  <rect x="420" y="168" width="142" height="36" rx="7" fill="rgba(14,165,233,0.15)" stroke="rgba(14,165,233,0.4)" stroke-width="1"/>
  <text x="430" y="183" fill="#38BDF8" font-size="9" font-weight="700">«artifact»</text>
  <text x="430" y="196" fill="#E2E8F0" font-size="9">API Routes (serverless)</text>

  <rect x="278" y="214" width="130" height="36" rx="7" fill="rgba(14,165,233,0.12)" stroke="rgba(14,165,233,0.3)" stroke-width="1"/>
  <text x="288" y="229" fill="#38BDF8" font-size="9" font-weight="700">«artifact»</text>
  <text x="288" y="242" fill="#E2E8F0" font-size="9">Grammy Webhook</text>

  <rect x="420" y="214" width="142" height="36" rx="7" fill="rgba(245,158,11,0.15)" stroke="rgba(245,158,11,0.4)" stroke-width="1"/>
  <text x="430" y="229" fill="#FBBF24" font-size="9" font-weight="700">«artifact»</text>
  <text x="430" y="242" fill="#E2E8F0" font-size="9">Cron Job Handler</text>

  <rect x="278" y="260" width="284" height="36" rx="7" fill="rgba(16,185,129,0.12)" stroke="rgba(16,185,129,0.3)" stroke-width="1"/>
  <text x="288" y="275" fill="#34D399" font-size="9" font-weight="700">«artifact»</text>
  <text x="288" y="288" fill="#E2E8F0" font-size="9">lib/prisma.ts · lib/auth.ts · lib/bot.ts · lib/whisper.ts</text>

  <!-- Sub-node: Static Assets -->
  <rect x="266" y="334" width="308" height="60" rx="10" fill="rgba(79,70,229,0.08)" stroke="rgba(79,70,229,0.2)" stroke-width="1" stroke-dasharray="4,3"/>
  <text x="420" y="352" text-anchor="middle" fill="#64748B" font-size="9" font-weight="700">«node» CDN Edge</text>
  <text x="420" y="368" text-anchor="middle" fill="#94A3B8" font-size="9">Static assets · JS bundles · SVG · Fonts</text>

  <!-- Sub-node: Cron -->
  <rect x="266" y="406" width="308" height="58" rx="10" fill="rgba(245,158,11,0.08)" stroke="rgba(245,158,11,0.3)" stroke-width="1.5"/>
  <text x="420" y="424" text-anchor="middle" fill="#FBBF24" font-size="9" font-weight="700">«scheduler» Vercel Cron Jobs</text>
  <text x="420" y="440" text-anchor="middle" fill="#94A3B8" font-size="9">*/1 * * * * → GET /api/cron/reminders</text>
  <text x="420" y="453" text-anchor="middle" fill="#64748B" font-size="9">Free tier: hasta 2 crons</text>

  <!-- ══════ NODE: NEON ══════ -->
  <rect x="650" y="80" width="290" height="140" rx="14" fill="rgba(16,185,129,0.08)" stroke="#10B981" stroke-width="1.5"/>
  <line x1="940" y1="80" x2="952" y2="68" stroke="#10B981" stroke-width="1" opacity="0.5"/>
  <line x1="952" y1="68" x2="952" y2="222" stroke="#10B981" stroke-width="1" opacity="0.5"/>
  <line x1="940" y1="220" x2="952" y2="222" stroke="#10B981" stroke-width="1" opacity="0.5"/>
  <text x="795" y="100" text-anchor="middle" fill="#10B981" font-size="10" font-weight="700">«cloud database»</text>
  <text x="795" y="116" text-anchor="middle" fill="#E2E8F0" font-size="13" font-weight="800">Neon Postgres</text>
  <text x="795" y="130" text-anchor="middle" fill="#64748B" font-size="9">Serverless · Auto-scale · Free tier</text>
  <rect x="666" y="142" width="258" height="36" rx="7" fill="rgba(16,185,129,0.18)" stroke="rgba(16,185,129,0.4)" stroke-width="1"/>
  <text x="676" y="157" fill="#34D399" font-size="9" font-weight="700">«artifact»</text>
  <text x="676" y="170" fill="#E2E8F0" font-size="9">Tables: users · tasks · events · reminders · tags</text>
  <rect x="666" y="186" width="258" height="28" rx="7" fill="rgba(16,185,129,0.10)" stroke="rgba(16,185,129,0.25)" stroke-width="1"/>
  <text x="795" y="204" text-anchor="middle" fill="#64748B" font-size="9">Región: US-East-1 · SSL forced</text>

  <!-- NODE: Telegram API -->
  <rect x="650" y="240" width="290" height="110" rx="14" fill="rgba(14,165,233,0.08)" stroke="#0EA5E9" stroke-width="1.5"/>
  <line x1="940" y1="240" x2="952" y2="228" stroke="#0EA5E9" stroke-width="1" opacity="0.5"/>
  <line x1="952" y1="228" x2="952" y2="352" stroke="#0EA5E9" stroke-width="1" opacity="0.5"/>
  <line x1="940" y1="350" x2="952" y2="352" stroke="#0EA5E9" stroke-width="1" opacity="0.5"/>
  <text x="795" y="260" text-anchor="middle" fill="#0EA5E9" font-size="10" font-weight="700">«external system»</text>
  <text x="795" y="276" text-anchor="middle" fill="#E2E8F0" font-size="13" font-weight="800">Telegram Bot API</text>
  <rect x="666" y="288" width="258" height="28" rx="7" fill="rgba(14,165,233,0.18)" stroke="rgba(14,165,233,0.4)" stroke-width="1"/>
  <text x="795" y="307" text-anchor="middle" fill="#E2E8F0" font-size="9">Webhook → api.telegram.org/bot...</text>
  <text x="795" y="330" text-anchor="middle" fill="#64748B" font-size="9">Send messages · getFile · updates</text>

  <!-- NODE: OpenAI -->
  <rect x="650" y="370" width="290" height="100" rx="14" fill="rgba(124,58,237,0.08)" stroke="#7C3AED" stroke-width="1.5"/>
  <line x1="940" y1="370" x2="952" y2="358" stroke="#7C3AED" stroke-width="1" opacity="0.5"/>
  <line x1="952" y1="358" x2="952" y2="472" stroke="#7C3AED" stroke-width="1" opacity="0.5"/>
  <line x1="940" y1="470" x2="952" y2="472" stroke="#7C3AED" stroke-width="1" opacity="0.5"/>
  <text x="795" y="390" text-anchor="middle" fill="#7C3AED" font-size="10" font-weight="700">«external service»</text>
  <text x="795" y="406" text-anchor="middle" fill="#E2E8F0" font-size="13" font-weight="800">OpenAI Whisper</text>
  <rect x="666" y="418" width="258" height="28" rx="7" fill="rgba(124,58,237,0.18)" stroke="rgba(124,58,237,0.4)" stroke-width="1"/>
  <text x="795" y="437" text-anchor="middle" fill="#E2E8F0" font-size="9">POST /v1/audio/transcriptions</text>
  <text x="795" y="454" text-anchor="middle" fill="#64748B" font-size="9">model: whisper-1 · lang: es</text>

  <!-- ══════ CONNECTIONS ══════ -->
  <!-- Computador → Vercel (HTTPS) -->
  <line x1="190" y1="160" x2="250" y2="200" stroke="#4F46E5" stroke-width="1.5" marker-end="url(#arr)"/>
  <text x="216" y="175" fill="#64748B" font-size="9">HTTPS</text>

  <!-- Celular → Vercel (HTTPS) -->
  <line x1="190" y1="340" x2="250" y2="310" stroke="#0EA5E9" stroke-width="1.5" marker-end="url(#arr)"/>
  <text x="216" y="332" fill="#64748B" font-size="9">HTTPS</text>

  <!-- Celular Telegram → Telegram API -->
  <line x1="190" y1="360" x2="650" y2="295" stroke="#38BDF8" stroke-width="1" stroke-dasharray="5,3" marker-end="url(#arrT)"/>
  <text x="416" y="322" text-anchor="middle" fill="#38BDF8" font-size="8">MTProto</text>

  <!-- Vercel → Neon -->
  <line x1="590" y1="200" x2="650" y2="160" stroke="#34D399" stroke-width="1.5" marker-end="url(#arrG)"/>
  <text x="626" y="175" fill="#34D399" font-size="9">Prisma SSL</text>

  <!-- Vercel Webhook → Telegram API -->
  <line x1="590" y1="228" x2="650" y2="280" stroke="#38BDF8" stroke-width="1.5" marker-end="url(#arrT)"/>
  <text x="626" y="250" fill="#38BDF8" font-size="9">HTTPS</text>

  <!-- Vercel → OpenAI -->
  <line x1="590" y1="240" x2="650" y2="400" stroke="#A78BFA" stroke-width="1.5" marker-end="url(#arr)"/>
  <text x="606" y="330" fill="#A78BFA" font-size="9">REST API</text>

  <!-- Vercel Cron self-call -->
  <line x1="420" y1="500" x2="420" y2="540" stroke="#FBBF24" stroke-width="1" stroke-dasharray="4,3"/>
  <line x1="420" y1="540" x2="266" y2="540" stroke="#FBBF24" stroke-width="1" stroke-dasharray="4,3"/>
  <text x="340" y="534" text-anchor="middle" fill="#FBBF24" font-size="8">trigger each minute</text>

  <!-- Telegram API → Vercel (Webhook push) -->
  <line x1="650" y1="305" x2="590" y2="232" stroke="#38BDF8" stroke-width="1" stroke-dasharray="5,3" marker-end="url(#arrT)"/>

  <!-- Legend -->
  <rect x="20" y="476" width="200" height="100" rx="10" fill="rgba(255,255,255,0.02)" stroke="rgba(255,255,255,0.07)" stroke-width="1"/>
  <text x="36" y="496" fill="#94A3B8" font-size="9" font-weight="700">LEYENDA</text>
  <line x1="36" y1="510" x2="66" y2="510" stroke="#64748B" stroke-width="1.5" marker-end="url(#arr)"/>
  <text x="74" y="514" fill="#64748B" font-size="9">Comunicación HTTPS</text>
  <line x1="36" y1="526" x2="66" y2="526" stroke="#34D399" stroke-width="1.5" marker-end="url(#arrG)"/>
  <text x="74" y="530" fill="#64748B" font-size="9">Conexión DB (Prisma)</text>
  <line x1="36" y1="542" x2="66" y2="542" stroke="#38BDF8" stroke-width="1" stroke-dasharray="5,3" marker-end="url(#arrT)"/>
  <text x="74" y="546" fill="#64748B" font-size="9">API externa</text>
  <line x1="36" y1="558" x2="66" y2="558" stroke="#FBBF24" stroke-width="1" stroke-dasharray="4,3" marker-end="url(#arrY)"/>
  <text x="74" y="562" fill="#64748B" font-size="9">Cron trigger</text>

  <text x="480" y="648" text-anchor="middle" fill="#334155" font-size="9">FlowTime — UML Despliegue v1.0 · Vercel + Neon + Telegram + OpenAI · 2026</text>
</svg>
