<svg viewBox="0 0 1280 800" xmlns="http://www.w3.org/2000/svg" font-family="'Segoe UI', system-ui, sans-serif">
  <defs>
    <linearGradient id="bg" x1="0%" y1="0%" x2="100%" y2="100%">
      <stop offset="0%" style="stop-color:#0A0A1A"/>
      <stop offset="55%" style="stop-color:#0D0D26"/>
      <stop offset="100%" style="stop-color:#120A2E"/>
    </linearGradient>
    <linearGradient id="indigo" x1="0%" y1="0%" x2="100%" y2="100%">
      <stop offset="0%" style="stop-color:#4F46E5"/>
      <stop offset="100%" style="stop-color:#7C3AED"/>
    </linearGradient>
    <linearGradient id="navPill" x1="0%" y1="0%" x2="0%" y2="100%">
      <stop offset="0%" style="stop-color:rgba(20,20,48,0.92)"/>
      <stop offset="100%" style="stop-color:rgba(10,10,28,0.96)"/>
    </linearGradient>
    <linearGradient id="green"  x1="0%" y1="0%" x2="100%" y2="100%"><stop offset="0%" style="stop-color:rgba(16,185,129,0.22)"/><stop offset="100%" style="stop-color:rgba(5,150,105,0.08)"/></linearGradient>
    <linearGradient id="amber"  x1="0%" y1="0%" x2="100%" y2="100%"><stop offset="0%" style="stop-color:rgba(245,158,11,0.22)"/><stop offset="100%" style="stop-color:rgba(217,119,6,0.08)"/></linearGradient>
    <linearGradient id="blue"   x1="0%" y1="0%" x2="100%" y2="100%"><stop offset="0%" style="stop-color:rgba(79,70,229,0.22)"/><stop offset="100%" style="stop-color:rgba(124,58,237,0.08)"/></linearGradient>
    <linearGradient id="red"    x1="0%" y1="0%" x2="100%" y2="100%"><stop offset="0%" style="stop-color:rgba(244,63,94,0.22)"/><stop offset="100%" style="stop-color:rgba(225,29,72,0.08)"/></linearGradient>
    <filter id="glow"><feGaussianBlur stdDeviation="45"/></filter>
    <filter id="pillGlow"><feGaussianBlur stdDeviation="16"/></filter>
    <filter id="softShadow"><feGaussianBlur stdDeviation="8"/></filter>
  </defs>

  <!-- Browser chrome -->
  <rect width="1280" height="800" fill="#12121f" rx="12"/>
  <rect x="0" y="0" width="1280" height="34" fill="#0c0c1a" rx="12"/>
  <rect x="0" y="22" width="1280" height="12" fill="#0c0c1a"/>
  <circle cx="14" cy="17" r="5" fill="#F43F5E" opacity="0.7"/>
  <circle cx="30" cy="17" r="5" fill="#F59E0B" opacity="0.7"/>
  <circle cx="46" cy="17" r="5" fill="#10B981" opacity="0.7"/>
  <rect x="360" y="6" width="560" height="20" rx="10" fill="rgba(255,255,255,0.05)"/>
  <text x="640" y="20" text-anchor="middle" fill="#334155" font-size="10">flowtime.app/history</text>

  <!-- App bg -->
  <rect x="0" y="34" width="1280" height="766" fill="url(#bg)"/>
  <circle cx="250"  cy="350" r="220" fill="rgba(16,185,129,0.08)" filter="url(#glow)"/>
  <circle cx="1050" cy="300" r="180" fill="rgba(79,70,229,0.08)" filter="url(#glow)"/>

  <!-- Top bar -->
  <rect x="0" y="34" width="1280" height="60" fill="rgba(8,8,22,0.7)"/>
  <rect x="0" y="93" width="1280" height="1" fill="rgba(255,255,255,0.05)"/>
  <circle cx="44" cy="64" r="16" fill="url(#indigo)"/>
  <text x="44" y="70" text-anchor="middle" fill="#fff" font-size="13" font-weight="800">F</text>
  <text x="70" y="68" fill="#E2E8F0" font-size="16" font-weight="800">FlowTime</text>
  <rect x="440" y="46" width="400" height="34" rx="17" fill="rgba(255,255,255,0.05)" stroke="rgba(255,255,255,0.08)" stroke-width="1"/>
  <text x="468" y="67" fill="#475569" font-size="13">🔍</text>
  <text x="490" y="67" fill="#334155" font-size="12">Buscar en historial...</text>
  <circle cx="1264" cy="64" r="18" fill="url(#indigo)" stroke="#4F46E5" stroke-width="1.5"/>
  <text x="1264" y="69" text-anchor="middle" fill="#fff" font-size="12" font-weight="700">V</text>

  <!-- Page header -->
  <text x="64" y="136" fill="#E2E8F0" font-size="28" font-weight="800">Historial</text>
  <text x="64" y="158" fill="#64748B" font-size="12">42 tareas completadas este mes</text>

  <!-- Date filter -->
  <rect x="860" y="118" width="200" height="32" rx="10" fill="rgba(255,255,255,0.05)" stroke="rgba(255,255,255,0.08)" stroke-width="1"/>
  <text x="880" y="138" fill="#64748B" font-size="12">📅 Junio 2026</text>
  <text x="1052" y="138" text-anchor="end" fill="#818CF8" font-size="12">▼</text>
  <rect x="1072" y="118" width="140" height="32" rx="10" fill="url(#indigo)"/>
  <text x="1142" y="138" text-anchor="middle" fill="#fff" font-size="12" font-weight="600">Exportar CSV</text>

  <!-- ── STATS ROW ── -->
  <rect x="64"  y="174" width="272" height="100" rx="18" fill="url(#green)" stroke="rgba(16,185,129,0.28)" stroke-width="1"/>
  <text x="92"  y="208" fill="#34D399" font-size="24">✅</text>
  <text x="230" y="232" text-anchor="middle" fill="#E2E8F0" font-size="40" font-weight="800">42</text>
  <text x="92"  y="258" fill="#64748B" font-size="12">Completadas este mes</text>

  <rect x="352" y="174" width="272" height="100" rx="18" fill="url(#blue)" stroke="rgba(79,70,229,0.28)" stroke-width="1"/>
  <text x="380" y="208" fill="#818CF8" font-size="24">📊</text>
  <text x="518" y="232" text-anchor="middle" fill="#E2E8F0" font-size="40" font-weight="800">2.1</text>
  <text x="380" y="258" fill="#64748B" font-size="12">Promedio diario</text>

  <rect x="640" y="174" width="272" height="100" rx="18" fill="url(#amber)" stroke="rgba(245,158,11,0.28)" stroke-width="1"/>
  <text x="668" y="208" fill="#FBBF24" font-size="24">🔥</text>
  <text x="806" y="232" text-anchor="middle" fill="#E2E8F0" font-size="40" font-weight="800">5</text>
  <text x="668" y="258" fill="#64748B" font-size="12">Días racha actual</text>

  <rect x="928" y="174" width="288" height="100" rx="18" fill="url(#red)" stroke="rgba(244,63,94,0.28)" stroke-width="1"/>
  <text x="956" y="208" fill="#FB7185" font-size="24">🏆</text>
  <text x="1116" y="232" text-anchor="middle" fill="#E2E8F0" font-size="40" font-weight="800">12</text>
  <text x="956" y="258" fill="#64748B" font-size="12">Récord personal</text>

  <!-- ── TWO COLUMN: Chart + Distribution ── -->

  <!-- Evolution line chart -->
  <rect x="64" y="292" width="700" height="196" rx="18" fill="rgba(255,255,255,0.03)" stroke="rgba(255,255,255,0.07)" stroke-width="1"/>
  <text x="88" y="322" fill="#E2E8F0" font-size="15" font-weight="700">Evolución semanal</text>
  <text x="748" y="322" text-anchor="end" fill="#818CF8" font-size="11">últimas 6 semanas</text>

  <!-- Chart area -->
  <!-- Y axis labels -->
  <text x="82" y="358" fill="#475569" font-size="9">10</text>
  <text x="82" y="400" fill="#475569" font-size="9">7</text>
  <text x="82" y="442" fill="#475569" font-size="9">4</text>
  <text x="82" y="470" fill="#475569" font-size="9">1</text>
  <!-- Grid lines -->
  <line x1="100" y1="352" x2="740" y2="352" stroke="rgba(255,255,255,0.04)" stroke-width="1"/>
  <line x1="100" y1="394" x2="740" y2="394" stroke="rgba(255,255,255,0.04)" stroke-width="1"/>
  <line x1="100" y1="436" x2="740" y2="436" stroke="rgba(255,255,255,0.04)" stroke-width="1"/>
  <line x1="100" y1="468" x2="740" y2="468" stroke="rgba(255,255,255,0.04)" stroke-width="1"/>

  <!-- Line -->
  <polyline points="114,438 220,410 326,424 432,380 538,396 644,358 720,344"
    fill="none" stroke="#4F46E5" stroke-width="2.5" stroke-linejoin="round" stroke-linecap="round"/>
  <!-- Area fill under line -->
  <polygon points="114,438 220,410 326,424 432,380 538,396 644,358 720,344 720,475 114,475"
    fill="url(#blue)" opacity="0.3"/>
  <!-- Dots -->
  <circle cx="114" cy="438" r="4" fill="#4F46E5"/>
  <circle cx="220" cy="410" r="4" fill="#4F46E5"/>
  <circle cx="326" cy="424" r="4" fill="#4F46E5"/>
  <circle cx="432" cy="380" r="4" fill="#4F46E5"/>
  <circle cx="538" cy="396" r="4" fill="#4F46E5"/>
  <circle cx="644" cy="358" r="4" fill="#4F46E5"/>
  <circle cx="720" cy="344" r="6" fill="#7C3AED" stroke="rgba(124,58,237,0.3)" stroke-width="10"/>
  <text x="720" y="338" text-anchor="middle" fill="#818CF8" font-size="10" font-weight="700">8</text>
  <!-- X labels -->
  <text x="114" y="488" text-anchor="middle" fill="#64748B" font-size="10">S1</text>
  <text x="220" y="488" text-anchor="middle" fill="#64748B" font-size="10">S2</text>
  <text x="326" y="488" text-anchor="middle" fill="#64748B" font-size="10">S3</text>
  <text x="432" y="488" text-anchor="middle" fill="#64748B" font-size="10">S4</text>
  <text x="538" y="488" text-anchor="middle" fill="#64748B" font-size="10">S5</text>
  <text x="644" y="488" text-anchor="middle" fill="#64748B" font-size="10">S6</text>
  <text x="720" y="488" text-anchor="middle" fill="#4F46E5" font-size="10" font-weight="700">Hoy</text>

  <!-- Priority distribution -->
  <rect x="780" y="292" width="436" height="196" rx="18" fill="rgba(255,255,255,0.03)" stroke="rgba(255,255,255,0.07)" stroke-width="1"/>
  <text x="804" y="322" fill="#E2E8F0" font-size="15" font-weight="700">Por prioridad</text>

  <!-- Horizontal stacked bars -->
  <text x="804" y="356" fill="#64748B" font-size="11">Urgente</text>
  <rect x="900" y="342" width="270" height="22" rx="6" fill="rgba(255,255,255,0.05)"/>
  <rect x="900" y="342" width="75" height="22" rx="6" fill="#F43F5E" opacity="0.8"/>
  <text x="982" y="357" text-anchor="middle" fill="#fff" font-size="10" font-weight="700">8 (19%)</text>

  <text x="804" y="392" fill="#64748B" font-size="11">Alta</text>
  <rect x="900" y="378" width="270" height="22" rx="6" fill="rgba(255,255,255,0.05)"/>
  <rect x="900" y="378" width="65" height="22" rx="6" fill="#F59E0B" opacity="0.8"/>
  <text x="935" y="393" text-anchor="middle" fill="#fff" font-size="10" font-weight="700">7 (17%)</text>

  <text x="804" y="428" fill="#64748B" font-size="11">Media</text>
  <rect x="900" y="414" width="270" height="22" rx="6" fill="rgba(255,255,255,0.05)"/>
  <rect x="900" y="414" width="118" height="22" rx="6" fill="#4F46E5" opacity="0.8"/>
  <text x="960" y="429" text-anchor="middle" fill="#fff" font-size="10" font-weight="700">18 (43%)</text>

  <text x="804" y="464" fill="#64748B" font-size="11">Baja</text>
  <rect x="900" y="450" width="270" height="22" rx="6" fill="rgba(255,255,255,0.05)"/>
  <rect x="900" y="450" width="53" height="22" rx="6" fill="#64748B" opacity="0.8"/>
  <text x="927" y="465" text-anchor="middle" fill="#fff" font-size="10" font-weight="700">9 (21%)</text>

  <!-- ── COMPLETED TASKS TABLE ── -->
  <text x="64" y="516" fill="#E2E8F0" font-size="15" font-weight="700">Últimas completadas</text>
  <text x="1216" y="516" text-anchor="end" fill="#818CF8" font-size="12">Ver todas →</text>

  <!-- Table header -->
  <rect x="64" y="524" width="1152" height="32" fill="rgba(255,255,255,0.03)" rx="8"/>
  <text x="88"  y="544" fill="#475569" font-size="11" font-weight="600">TAREA</text>
  <text x="550" y="544" fill="#475569" font-size="11" font-weight="600">PRIORIDAD</text>
  <text x="700" y="544" fill="#475569" font-size="11" font-weight="600">ETIQUETA</text>
  <text x="860" y="544" fill="#475569" font-size="11" font-weight="600">COMPLETADA</text>
  <text x="1060" y="544" fill="#475569" font-size="11" font-weight="600">DURACIÓN</text>

  <!-- Row 1 -->
  <rect x="64" y="558" width="1152" height="44" rx="10" fill="rgba(255,255,255,0.025)" stroke="rgba(255,255,255,0.05)" stroke-width="1"/>
  <circle cx="90" cy="580" r="12" fill="rgba(16,185,129,0.3)" stroke="#10B981" stroke-width="1.5"/>
  <text x="90" y="584" text-anchor="middle" fill="#34D399" font-size="11">✓</text>
  <text x="114" y="583" fill="#94A3B8" font-size="13">Ordenar carpetas drive</text>
  <rect x="530" y="568" width="54" height="18" rx="9" fill="rgba(79,70,229,0.2)"/>
  <text x="557" y="581" text-anchor="middle" fill="#818CF8" font-size="10">MEDIA</text>
  <rect x="680" y="568" width="58" height="18" rx="9" fill="rgba(79,70,229,0.15)"/>
  <text x="709" y="581" text-anchor="middle" fill="#818CF8" font-size="10">reportes</text>
  <text x="860" y="583" fill="#64748B" font-size="12">Hoy 09:12</text>
  <text x="1060" y="583" fill="#64748B" font-size="12">25 min</text>

  <!-- Row 2 -->
  <rect x="64" y="608" width="1152" height="44" rx="10" fill="rgba(255,255,255,0.015)"/>
  <circle cx="90" cy="630" r="12" fill="rgba(16,185,129,0.3)" stroke="#10B981" stroke-width="1.5"/>
  <text x="90" y="634" text-anchor="middle" fill="#34D399" font-size="11">✓</text>
  <text x="114" y="633" fill="#94A3B8" font-size="13">Enviar reporte semanal</text>
  <rect x="530" y="618" width="42" height="18" rx="9" fill="rgba(245,158,11,0.2)"/>
  <text x="551" y="631" text-anchor="middle" fill="#FBBF24" font-size="10">ALTA</text>
  <rect x="680" y="618" width="64" height="18" rx="9" fill="rgba(245,158,11,0.15)"/>
  <text x="712" y="631" text-anchor="middle" fill="#FBBF24" font-size="10">finanzas</text>
  <text x="860" y="633" fill="#64748B" font-size="12">Ayer 17:45</text>
  <text x="1060" y="633" fill="#64748B" font-size="12">40 min</text>

  <!-- Row 3 -->
  <rect x="64" y="658" width="1152" height="44" rx="10" fill="rgba(255,255,255,0.025)" stroke="rgba(255,255,255,0.05)" stroke-width="1"/>
  <circle cx="90" cy="680" r="12" fill="rgba(16,185,129,0.3)" stroke="#10B981" stroke-width="1.5"/>
  <text x="90" y="684" text-anchor="middle" fill="#34D399" font-size="11">✓</text>
  <text x="114" y="683" fill="#94A3B8" font-size="13">Revisar facturas proveedor</text>
  <rect x="530" y="668" width="54" height="18" rx="9" fill="rgba(79,70,229,0.2)"/>
  <text x="557" y="681" text-anchor="middle" fill="#818CF8" font-size="10">MEDIA</text>
  <rect x="680" y="668" width="36" height="18" rx="9" fill="rgba(16,185,129,0.15)"/>
  <text x="698" y="681" text-anchor="middle" fill="#34D399" font-size="10">legal</text>
  <text x="860" y="683" fill="#64748B" font-size="12">Ayer 14:20</text>
  <text x="1060" y="683" fill="#64748B" font-size="12">15 min</text>

  <!-- Row 4 -->
  <rect x="64" y="708" width="1152" height="44" rx="10" fill="rgba(255,255,255,0.015)"/>
  <circle cx="90" cy="730" r="12" fill="rgba(16,185,129,0.3)" stroke="#10B981" stroke-width="1.5"/>
  <text x="90" y="734" text-anchor="middle" fill="#34D399" font-size="11">✓</text>
  <text x="114" y="733" fill="#94A3B8" font-size="13">Preparar agenda reunión directorio</text>
  <rect x="530" y="718" width="54" height="18" rx="9" fill="rgba(244,63,94,0.2)"/>
  <text x="557" y="731" text-anchor="middle" fill="#FB7185" font-size="10">URGENTE</text>
  <rect x="680" y="718" width="58" height="18" rx="9" fill="rgba(79,70,229,0.15)"/>
  <text x="709" y="731" text-anchor="middle" fill="#818CF8" font-size="10">reportes</text>
  <text x="860" y="733" fill="#64748B" font-size="12">Hace 2 días</text>
  <text x="1060" y="733" fill="#64748B" font-size="12">1h 10 min</text>

  <!-- ══ FLOATING PILL NAV ══ -->
  <ellipse cx="640" cy="768" rx="280" ry="20" fill="rgba(79,70,229,0.25)" filter="url(#pillGlow)"/>
  <rect x="316" y="740" width="648" height="58" rx="29" fill="rgba(0,0,0,0.5)" filter="url(#softShadow)"/>
  <rect x="320" y="736" width="640" height="56" rx="28" fill="url(#navPill)" stroke="rgba(255,255,255,0.10)" stroke-width="1"/>
  <rect x="321" y="737" width="638" height="28" rx="28" fill="rgba(255,255,255,0.03)"/>

  <text x="377" y="762" text-anchor="middle" font-size="16">📊</text>
  <text x="377" y="778" text-anchor="middle" fill="#475569" font-size="9">Inicio</text>
  <text x="480" y="762" text-anchor="middle" font-size="16">✅</text>
  <text x="480" y="778" text-anchor="middle" fill="#475569" font-size="9">Tareas</text>
  <circle cx="640" cy="764" r="26" fill="rgba(79,70,229,0.2)" filter="url(#pillGlow)"/>
  <circle cx="640" cy="764" r="24" fill="url(#indigo)" stroke="rgba(255,255,255,0.15)" stroke-width="1.5"/>
  <text x="640" y="771" text-anchor="middle" fill="#fff" font-size="22" font-weight="300">+</text>
  <text x="800" y="762" text-anchor="middle" font-size="16">📅</text>
  <text x="800" y="778" text-anchor="middle" fill="#475569" font-size="9">Calendario</text>
  <!-- Historial active -->
  <rect x="846" y="740" width="68" height="48" rx="18" fill="rgba(79,70,229,0.28)" stroke="rgba(79,70,229,0.5)" stroke-width="1"/>
  <text x="880" y="762" text-anchor="middle" font-size="16">📈</text>
  <text x="880" y="778" text-anchor="middle" fill="#818CF8" font-size="9" font-weight="700">Historial</text>
  <text x="948" y="762" text-anchor="middle" font-size="16">⚙️</text>
  <text x="948" y="778" text-anchor="middle" fill="#475569" font-size="9">Config</text>

  <text x="640" y="796" text-anchor="middle" fill="#1E293B" font-size="10">FlowTime — Historial (Desktop) v1.0 · 2026</text>
</svg>
