<svg viewBox="0 0 1280 800" xmlns="http://www.w3.org/2000/svg" font-family="'Segoe UI', system-ui, sans-serif">
  <defs>
    <linearGradient id="bg" x1="0%" y1="0%" x2="100%" y2="100%">
      <stop offset="0%" style="stop-color:#0A0A1A"/>
      <stop offset="55%" style="stop-color:#0D0D26"/>
      <stop offset="100%" style="stop-color:#120A2E"/>
    </linearGradient>
    <linearGradient id="indigo" x1="0%" y1="0%" x2="100%" y2="100%">
      <stop offset="0%" style="stop-color:#4F46E5"/>
      <stop offset="100%" style="stop-color:#7C3AED"/>
    </linearGradient>
    <linearGradient id="cardBlue" x1="0%" y1="0%" x2="100%" y2="100%">
      <stop offset="0%" style="stop-color:rgba(79,70,229,0.22)"/>
      <stop offset="100%" style="stop-color:rgba(124,58,237,0.08)"/>
    </linearGradient>
    <linearGradient id="cardGreen" x1="0%" y1="0%" x2="100%" y2="100%">
      <stop offset="0%" style="stop-color:rgba(16,185,129,0.22)"/>
      <stop offset="100%" style="stop-color:rgba(5,150,105,0.08)"/>
    </linearGradient>
    <linearGradient id="cardRed" x1="0%" y1="0%" x2="100%" y2="100%">
      <stop offset="0%" style="stop-color:rgba(244,63,94,0.22)"/>
      <stop offset="100%" style="stop-color:rgba(225,29,72,0.08)"/>
    </linearGradient>
    <linearGradient id="cardAmber" x1="0%" y1="0%" x2="100%" y2="100%">
      <stop offset="0%" style="stop-color:rgba(245,158,11,0.22)"/>
      <stop offset="100%" style="stop-color:rgba(217,119,6,0.08)"/>
    </linearGradient>
    <linearGradient id="navPill" x1="0%" y1="0%" x2="0%" y2="100%">
      <stop offset="0%" style="stop-color:rgba(20,20,48,0.92)"/>
      <stop offset="100%" style="stop-color:rgba(10,10,28,0.96)"/>
    </linearGradient>
    <filter id="glow"><feGaussianBlur stdDeviation="45"/></filter>
    <filter id="pillGlow"><feGaussianBlur stdDeviation="16"/></filter>
    <filter id="softShadow"><feGaussianBlur stdDeviation="8"/></filter>
    <clipPath id="screen"><rect x="0" y="0" width="1280" height="800" rx="12"/></clipPath>
  </defs>

  <!-- Browser chrome -->
  <rect width="1280" height="800" fill="#12121f" rx="12"/>
  <rect x="0" y="0" width="1280" height="34" fill="#0c0c1a" rx="12"/>
  <rect x="0" y="22" width="1280" height="12" fill="#0c0c1a"/>
  <circle cx="14" cy="17" r="5" fill="#F43F5E" opacity="0.7"/>
  <circle cx="30" cy="17" r="5" fill="#F59E0B" opacity="0.7"/>
  <circle cx="46" cy="17" r="5" fill="#10B981" opacity="0.7"/>
  <rect x="360" y="6" width="560" height="20" rx="10" fill="rgba(255,255,255,0.05)"/>
  <text x="640" y="20" text-anchor="middle" fill="#334155" font-size="10">flowtime.app/dashboard</text>

  <!-- App -->
  <rect x="0" y="34" width="1280" height="766" fill="url(#bg)"/>

  <!-- Aurora blobs -->
  <circle cx="200"  cy="280" r="220" fill="rgba(79,70,229,0.13)" filter="url(#glow)"/>
  <circle cx="1080" cy="400" r="200" fill="rgba(14,165,233,0.09)" filter="url(#glow)"/>
  <circle cx="640"  cy="160" r="180" fill="rgba(124,58,237,0.08)" filter="url(#glow)"/>

  <!-- ══ TOP BAR ══ -->
  <rect x="0" y="34" width="1280" height="60" fill="rgba(8,8,22,0.7)"/>
  <rect x="0" y="93" width="1280" height="1" fill="rgba(255,255,255,0.05)"/>

  <!-- Logo left -->
  <circle cx="44" cy="64" r="16" fill="url(#indigo)"/>
  <text x="44" y="70" text-anchor="middle" fill="#fff" font-size="13" font-weight="800">F</text>
  <text x="70" y="68" fill="#E2E8F0" font-size="16" font-weight="800">FlowTime</text>

  <!-- Search center -->
  <rect x="440" y="46" width="400" height="34" rx="17" fill="rgba(255,255,255,0.05)" stroke="rgba(255,255,255,0.08)" stroke-width="1"/>
  <text x="468" y="67" fill="#475569" font-size="13">🔍</text>
  <text x="490" y="67" fill="#334155" font-size="12">Buscar tareas, eventos...</text>
  <text x="826" y="67" text-anchor="end" fill="#334155" font-size="10">⌘K</text>

  <!-- Right actions -->
  <rect x="1100" y="48" width="36" height="32" rx="10" fill="rgba(255,255,255,0.05)"/>
  <text x="1118" y="69" text-anchor="middle" fill="#64748B" font-size="14">🔔</text>
  <circle cx="1128" cy="50" r="5" fill="#F43F5E"/>
  <text x="1128" y="54" text-anchor="middle" fill="#fff" font-size="7" font-weight="700">2</text>

  <rect x="1148" y="48" width="104" height="32" rx="10" fill="url(#indigo)"/>
  <text x="1200" y="69" text-anchor="middle" fill="#fff" font-size="12" font-weight="700">+ Nueva tarea</text>

  <circle cx="1264" cy="64" r="18" fill="url(#indigo)" stroke="#4F46E5" stroke-width="1.5"/>
  <text x="1264" y="69" text-anchor="middle" fill="#fff" font-size="12" font-weight="700">V</text>

  <!-- ══ PAGE HEADER ══ -->
  <text x="64" y="138" fill="#64748B" font-size="12">Domingo, 28 de junio · Semana 26</text>
  <text x="64" y="168" fill="#E2E8F0" font-size="28" font-weight="800">Buenos días, Vicente 👋</text>

  <!-- ══ METRICS ROW ══ -->
  <rect x="64"  y="188" width="270" height="104" rx="18" fill="url(#cardBlue)"  stroke="rgba(79,70,229,0.28)"  stroke-width="1"/>
  <rect x="354" y="188" width="270" height="104" rx="18" fill="url(#cardGreen)" stroke="rgba(16,185,129,0.28)" stroke-width="1"/>
  <rect x="644" y="188" width="270" height="104" rx="18" fill="url(#cardRed)"   stroke="rgba(244,63,94,0.28)"  stroke-width="1"/>
  <rect x="934" y="188" width="270" height="104" rx="18" fill="url(#cardAmber)" stroke="rgba(245,158,11,0.28)" stroke-width="1"/>

  <!-- Card icons -->
  <text x="92"  y="222" fill="#818CF8" font-size="24">📋</text>
  <text x="382" y="222" fill="#34D399" font-size="24">✅</text>
  <text x="672" y="222" fill="#FB7185" font-size="24">🔴</text>
  <text x="962" y="222" fill="#FBBF24" font-size="24">🔥</text>

  <!-- Card numbers -->
  <text x="218" y="248" text-anchor="middle" fill="#E2E8F0" font-size="38" font-weight="800">8</text>
  <text x="508" y="248" text-anchor="middle" fill="#E2E8F0" font-size="38" font-weight="800">3</text>
  <text x="798" y="248" text-anchor="middle" fill="#E2E8F0" font-size="38" font-weight="800">2</text>
  <text x="1088" y="248" text-anchor="middle" fill="#E2E8F0" font-size="38" font-weight="800">5</text>

  <!-- Card labels -->
  <text x="92"  y="275" fill="#64748B" font-size="12">Tareas pendientes</text>
  <text x="382" y="275" fill="#64748B" font-size="12">Completadas hoy</text>
  <text x="672" y="275" fill="#64748B" font-size="12">Urgentes hoy</text>
  <text x="962" y="275" fill="#64748B" font-size="12">Días de racha</text>

  <!-- Trend labels -->
  <text x="316" y="275" text-anchor="end" fill="#818CF8" font-size="10">↑ 2 vs ayer</text>
  <text x="606" y="275" text-anchor="end" fill="#34D399" font-size="10">↑ buen ritmo</text>
  <text x="896" y="275" text-anchor="end" fill="#FB7185" font-size="10">⚠ atención</text>
  <text x="1186" y="275" text-anchor="end" fill="#FBBF24" font-size="10">récord: 12</text>

  <!-- ══ TWO-COLUMN CONTENT ══ -->

  <!-- LEFT COL: Activity + Tasks (64 to 870) -->

  <!-- Activity Chart -->
  <rect x="64" y="312" width="580" height="200" rx="18" fill="rgba(255,255,255,0.03)" stroke="rgba(255,255,255,0.07)" stroke-width="1"/>
  <text x="88" y="342" fill="#E2E8F0" font-size="15" font-weight="700">Actividad semanal</text>
  <text x="628" y="342" text-anchor="end" fill="#818CF8" font-size="11">últimos 7 días</text>

  <!-- Bars -->
  <text x="122"  y="494" text-anchor="middle" fill="#64748B" font-size="10">L</text>
  <text x="204"  y="494" text-anchor="middle" fill="#64748B" font-size="10">M</text>
  <text x="286"  y="494" text-anchor="middle" fill="#64748B" font-size="10">X</text>
  <text x="368"  y="494" text-anchor="middle" fill="#64748B" font-size="10">J</text>
  <text x="450"  y="494" text-anchor="middle" fill="#64748B" font-size="10">V</text>
  <text x="532"  y="494" text-anchor="middle" fill="#64748B" font-size="10">S</text>
  <text x="614"  y="494" text-anchor="middle" fill="#4F46E5" font-size="10" font-weight="700">H</text>

  <rect x="100" y="438" width="44" height="48" rx="8" fill="rgba(79,70,229,0.35)"/>
  <rect x="182" y="416" width="44" height="70" rx="8" fill="rgba(79,70,229,0.35)"/>
  <rect x="264" y="450" width="44" height="36" rx="8" fill="rgba(79,70,229,0.35)"/>
  <rect x="346" y="404" width="44" height="82" rx="8" fill="rgba(79,70,229,0.35)"/>
  <rect x="428" y="426" width="44" height="60" rx="8" fill="rgba(79,70,229,0.35)"/>
  <rect x="510" y="462" width="44" height="24" rx="8" fill="rgba(79,70,229,0.2)"/>
  <rect x="592" y="420" width="44" height="66" rx="8" fill="url(#indigo)" opacity="0.9"/>
  <text x="614" y="416" text-anchor="middle" fill="#818CF8" font-size="10" font-weight="700">3</text>

  <!-- Priority Tasks -->
  <text x="64" y="538" fill="#E2E8F0" font-size="15" font-weight="700">Tareas prioritarias</text>
  <text x="644" y="538" text-anchor="end" fill="#818CF8" font-size="12">Ver todas →</text>

  <rect x="64" y="552" width="580" height="58" rx="14" fill="rgba(244,63,94,0.09)" stroke="rgba(244,63,94,0.22)" stroke-width="1"/>
  <rect x="64"  y="552" width="4" height="58" rx="2" fill="#F43F5E"/>
  <circle cx="90" cy="581" r="12" fill="transparent" stroke="rgba(244,63,94,0.5)" stroke-width="1.5"/>
  <text x="116" y="575" fill="#E2E8F0" font-size="13" font-weight="600">Llamar al banco</text>
  <rect x="116" y="581" width="54" height="15" rx="7" fill="rgba(244,63,94,0.25)"/>
  <text x="143" y="593" text-anchor="middle" fill="#FB7185" font-size="9" font-weight="700">URGENTE</text>
  <text x="636" y="583" text-anchor="end" fill="#64748B" font-size="11">Hoy 10:00</text>

  <rect x="64" y="618" width="580" height="58" rx="14" fill="rgba(245,158,11,0.07)" stroke="rgba(245,158,11,0.18)" stroke-width="1"/>
  <rect x="64"  y="618" width="4" height="58" rx="2" fill="#F59E0B"/>
  <circle cx="90" cy="647" r="12" fill="transparent" stroke="rgba(245,158,11,0.5)" stroke-width="1.5"/>
  <text x="116" y="641" fill="#E2E8F0" font-size="13" font-weight="600">Revisar contrato Empresa X</text>
  <text x="636" y="649" text-anchor="end" fill="#64748B" font-size="11">Mañana</text>

  <rect x="64" y="684" width="580" height="58" rx="14" fill="rgba(79,70,229,0.07)" stroke="rgba(79,70,229,0.18)" stroke-width="1"/>
  <rect x="64"  y="684" width="4" height="58" rx="2" fill="#4F46E5"/>
  <circle cx="90" cy="713" r="12" fill="rgba(14,165,233,0.2)" stroke="#0EA5E9" stroke-width="1.5"/>
  <text x="90" cy="717" text-anchor="middle" fill="#38BDF8" font-size="9">▶</text>
  <text x="116" y="707" fill="#E2E8F0" font-size="13" font-weight="600">Preparar presentación Q3</text>
  <text x="116" y="723" fill="#0EA5E9" font-size="10">En progreso</text>
  <text x="636" y="715" text-anchor="end" fill="#64748B" font-size="11">Viernes</text>

  <!-- RIGHT COL: Mini-cal + Events (660 to 1216) -->

  <!-- Mini calendar -->
  <rect x="660" y="312" width="556" height="210" rx="18" fill="rgba(255,255,255,0.03)" stroke="rgba(255,255,255,0.07)" stroke-width="1"/>
  <text x="684" y="342" fill="#E2E8F0" font-size="15" font-weight="700">Junio 2026</text>
  <text x="1200" y="342" text-anchor="end" fill="#818CF8" font-size="16">‹ ›</text>

  <text x="726"  y="368" text-anchor="middle" fill="#64748B" font-size="11">L</text>
  <text x="806"  y="368" text-anchor="middle" fill="#64748B" font-size="11">M</text>
  <text x="886"  y="368" text-anchor="middle" fill="#64748B" font-size="11">X</text>
  <text x="966"  y="368" text-anchor="middle" fill="#64748B" font-size="11">J</text>
  <text x="1046" y="368" text-anchor="middle" fill="#64748B" font-size="11">V</text>
  <text x="1126" y="368" text-anchor="middle" fill="#94A3B8" font-size="11">S</text>
  <text x="1200" y="368" text-anchor="middle" fill="#94A3B8" font-size="11">D</text>

  <text x="726"  y="396" text-anchor="middle" fill="#64748B" font-size="12">1</text>
  <text x="806"  y="396" text-anchor="middle" fill="#64748B" font-size="12">2</text>
  <text x="886"  y="396" text-anchor="middle" fill="#64748B" font-size="12">3</text>
  <text x="966"  y="396" text-anchor="middle" fill="#64748B" font-size="12">4</text>
  <text x="1046" y="396" text-anchor="middle" fill="#64748B" font-size="12">5</text>
  <text x="1126" y="396" text-anchor="middle" fill="#475569" font-size="12">6</text>
  <text x="1200" y="396" text-anchor="middle" fill="#475569" font-size="12">7</text>
  <circle cx="886" cy="386" r="3" fill="#4F46E5"/>

  <text x="726"  y="428" text-anchor="middle" fill="#64748B" font-size="12">8</text>
  <text x="806"  y="428" text-anchor="middle" fill="#64748B" font-size="12">9</text>
  <text x="886"  y="428" text-anchor="middle" fill="#64748B" font-size="12">10</text>
  <text x="966"  y="428" text-anchor="middle" fill="#64748B" font-size="12">11</text>
  <text x="1046" y="428" text-anchor="middle" fill="#64748B" font-size="12">12</text>
  <text x="1126" y="428" text-anchor="middle" fill="#475569" font-size="12">13</text>
  <text x="1200" y="428" text-anchor="middle" fill="#475569" font-size="12">14</text>
  <circle cx="806"  cy="418" r="3" fill="#F43F5E"/>
  <circle cx="966"  cy="418" r="3" fill="#4F46E5"/>

  <text x="726"  y="460" text-anchor="middle" fill="#64748B" font-size="12">15</text>
  <text x="806"  y="460" text-anchor="middle" fill="#64748B" font-size="12">16</text>
  <text x="886"  y="460" text-anchor="middle" fill="#64748B" font-size="12">17</text>
  <text x="966"  y="460" text-anchor="middle" fill="#64748B" font-size="12">18</text>
  <text x="1046" y="460" text-anchor="middle" fill="#64748B" font-size="12">19</text>
  <circle cx="726" cy="450" r="3" fill="#0EA5E9"/>

  <text x="726"  y="492" text-anchor="middle" fill="#64748B" font-size="12">22</text>
  <text x="806"  y="492" text-anchor="middle" fill="#64748B" font-size="12">23</text>
  <text x="886"  y="492" text-anchor="middle" fill="#64748B" font-size="12">24</text>

  <!-- Today -->
  <circle cx="726" cy="518" r="18" fill="url(#indigo)"/>
  <text x="726" y="523" text-anchor="middle" fill="#fff" font-size="13" font-weight="700">29</text>
  <text x="806" y="518" text-anchor="middle" fill="#64748B" font-size="12">30</text>
  <circle cx="726" cy="534" r="3" fill="rgba(255,255,255,0.5)"/>

  <!-- Upcoming Events -->
  <text x="660" y="548" fill="#E2E8F0" font-size="15" font-weight="700">Próximos eventos</text>

  <rect x="660" y="562" width="556" height="70" rx="14" fill="rgba(79,70,229,0.10)" stroke="rgba(79,70,229,0.22)" stroke-width="1"/>
  <rect x="660" y="562" width="4" height="70" rx="2" fill="#4F46E5"/>
  <text x="680" y="588" fill="#818CF8" font-size="11" font-weight="700">HOY · 14:00 — 15:30</text>
  <text x="680" y="608" fill="#E2E8F0" font-size="13" font-weight="600">Reunión con equipo 👥</text>
  <text x="680" y="624" fill="#64748B" font-size="10">Sala 3, piso 4</text>

  <rect x="660" y="642" width="556" height="70" rx="14" fill="rgba(14,165,233,0.09)" stroke="rgba(14,165,233,0.2)" stroke-width="1"/>
  <rect x="660" y="642" width="4" height="70" rx="2" fill="#0EA5E9"/>
  <text x="680" y="668" fill="#38BDF8" font-size="11" font-weight="700">HOY · 17:00 — 18:00</text>
  <text x="680" y="688" fill="#E2E8F0" font-size="13" font-weight="600">Review cierre mensual 📊</text>
  <text x="680" y="704" fill="#64748B" font-size="10">Con directivos · Remoto</text>

  <!-- ══ FLOATING PILL NAV ══ -->
  <!-- Glow under pill -->
  <ellipse cx="640" cy="768" rx="280" ry="20" fill="rgba(79,70,229,0.25)" filter="url(#pillGlow)"/>

  <!-- Pill shadow -->
  <rect x="316" y="740" width="648" height="58" rx="29" fill="rgba(0,0,0,0.5)" filter="url(#softShadow)"/>

  <!-- Pill body -->
  <rect x="320" y="736" width="640" height="56" rx="28" fill="url(#navPill)" stroke="rgba(255,255,255,0.10)" stroke-width="1"/>
  <!-- Inner highlight -->
  <rect x="321" y="737" width="638" height="28" rx="28" fill="rgba(255,255,255,0.03)"/>

  <!-- Nav items — 6 items: Dashboard | Tareas | + | Calendario | Historial | Config -->
  <!-- Spacing: pill x=320 w=640. 6 items. Center positions: 320+53=373, +107=480, +107=587(FAB), +107=694, +107=801, +107=908... wait -->
  <!-- Let me recalculate: 640/6 = 106.7 per slot. First center: 320 + 53 = 373 -->
  <!-- 373, 480, 587, 694, 801, 908... 908>960 so that's wrong -->
  <!-- Actually pill ends at 320+640=960. Centers: 320+53=373, 373+107=480, 480+107=587, 587+107=694, 694+107=801, 801+107=908. But 908<960 ✓ -->

  <!-- Dashboard (active) -->
  <rect x="333" y="740" width="88" height="48" rx="18" fill="rgba(79,70,229,0.28)" stroke="rgba(79,70,229,0.5)" stroke-width="1"/>
  <text x="377" y="762" text-anchor="middle" font-size="16">📊</text>
  <text x="377" y="778" text-anchor="middle" fill="#818CF8" font-size="9" font-weight="700">Inicio</text>

  <!-- Tareas -->
  <text x="480" y="762" text-anchor="middle" font-size="16">✅</text>
  <text x="480" y="778" text-anchor="middle" fill="#475569" font-size="9">Tareas</text>

  <!-- FAB center + -->
  <circle cx="640" cy="764" r="26" fill="rgba(79,70,229,0.2)" filter="url(#pillGlow)"/>
  <circle cx="640" cy="764" r="24" fill="url(#indigo)" stroke="rgba(255,255,255,0.15)" stroke-width="1.5"/>
  <text x="640" y="771" text-anchor="middle" fill="#fff" font-size="22" font-weight="300">+</text>

  <!-- Calendario -->
  <text x="800" y="762" text-anchor="middle" font-size="16">📅</text>
  <text x="800" y="778" text-anchor="middle" fill="#475569" font-size="9">Calendario</text>

  <!-- Historial -->
  <text x="880" y="762" text-anchor="middle" font-size="16">📈</text>
  <text x="880" y="778" text-anchor="middle" fill="#475569" font-size="9">Historial</text>

  <!-- Config -->
  <text x="948" y="762" text-anchor="middle" font-size="16">⚙️</text>
  <text x="948" y="778" text-anchor="middle" fill="#475569" font-size="9">Config</text>

  <!-- Label -->
  <text x="640" y="796" text-anchor="middle" fill="#1E293B" font-size="10">FlowTime — Dashboard (Desktop) v1.1 · 2026</text>
</svg>
