<svg viewBox="0 0 400 860" xmlns="http://www.w3.org/2000/svg" font-family="'Segoe UI', system-ui, sans-serif">
  <defs>
    <linearGradient id="bg" x1="0%" y1="0%" x2="100%" y2="100%">
      <stop offset="0%" style="stop-color:#0A0A1A"/>
      <stop offset="50%" style="stop-color:#0D0D28"/>
      <stop offset="100%" style="stop-color:#120A2E"/>
    </linearGradient>
    <linearGradient id="indigo" x1="0%" y1="0%" x2="100%" y2="100%">
      <stop offset="0%" style="stop-color:#4F46E5"/>
      <stop offset="100%" style="stop-color:#7C3AED"/>
    </linearGradient>
    <linearGradient id="navGrad" x1="0%" y1="0%" x2="0%" y2="100%">
      <stop offset="0%" style="stop-color:rgba(15,15,40,0.95)"/>
      <stop offset="100%" style="stop-color:rgba(10,10,30,0.98)"/>
    </linearGradient>
    <filter id="blur1"><feGaussianBlur stdDeviation="28"/></filter>
  </defs>

  <rect width="400" height="860" fill="url(#bg)" rx="40"/>
  <circle cx="80"  cy="200" r="130" fill="rgba(79,70,229,0.10)" filter="url(#blur1)"/>
  <circle cx="340" cy="500" r="100" fill="rgba(16,185,129,0.08)" filter="url(#blur1)"/>

  <!-- Status bar -->
  <text x="24" y="26" fill="#94A3B8" font-size="11" font-weight="600">9:41</text>
  <text x="376" y="26" text-anchor="middle" fill="#94A3B8" font-size="11">●●●</text>

  <!-- Back + Header -->
  <text x="24" y="64" fill="#818CF8" font-size="18">‹</text>
  <text x="200" y="64" text-anchor="middle" fill="#E2E8F0" font-size="20" font-weight="800">Historial</text>

  <!-- Date range filter -->
  <rect x="16" y="78" width="368" height="32" rx="16" fill="rgba(255,255,255,0.05)" stroke="rgba(255,255,255,0.08)" stroke-width="1"/>
  <text x="32" y="99" fill="#64748B" font-size="12">📅</text>
  <text x="52" y="99" fill="#64748B" font-size="11">Este mes — Junio 2026</text>
  <text x="370" y="99" text-anchor="end" fill="#818CF8" font-size="11">▼</text>

  <!-- ── STATS ROW ── -->
  <!-- Card 1: Completadas mes -->
  <rect x="16"  y="122" width="84" height="78" rx="14" fill="rgba(16,185,129,0.14)" stroke="rgba(16,185,129,0.28)" stroke-width="1"/>
  <text x="58"  y="146" text-anchor="middle" fill="#34D399" font-size="18">✅</text>
  <text x="58"  y="170" text-anchor="middle" fill="#E2E8F0" font-size="24" font-weight="800">42</text>
  <text x="58"  y="186" text-anchor="middle" fill="#64748B" font-size="8">este mes</text>

  <!-- Card 2: Prom/día -->
  <rect x="108" y="122" width="84" height="78" rx="14" fill="rgba(79,70,229,0.14)" stroke="rgba(79,70,229,0.28)" stroke-width="1"/>
  <text x="150" y="146" text-anchor="middle" fill="#818CF8" font-size="18">📊</text>
  <text x="150" y="170" text-anchor="middle" fill="#E2E8F0" font-size="24" font-weight="800">2.1</text>
  <text x="150" y="186" text-anchor="middle" fill="#64748B" font-size="8">prom./día</text>

  <!-- Card 3: Racha -->
  <rect x="200" y="122" width="84" height="78" rx="14" fill="rgba(245,158,11,0.14)" stroke="rgba(245,158,11,0.28)" stroke-width="1"/>
  <text x="242" y="146" text-anchor="middle" fill="#FBBF24" font-size="18">🔥</text>
  <text x="242" y="170" text-anchor="middle" fill="#E2E8F0" font-size="24" font-weight="800">5</text>
  <text x="242" y="186" text-anchor="middle" fill="#64748B" font-size="8">racha actual</text>

  <!-- Card 4: Récord -->
  <rect x="292" y="122" width="92" height="78" rx="14" fill="rgba(244,63,94,0.12)" stroke="rgba(244,63,94,0.25)" stroke-width="1"/>
  <text x="338" y="146" text-anchor="middle" fill="#FB7185" font-size="18">🏆</text>
  <text x="338" y="170" text-anchor="middle" fill="#E2E8F0" font-size="24" font-weight="800">12</text>
  <text x="338" y="186" text-anchor="middle" fill="#64748B" font-size="8">días récord</text>

  <!-- ── EVOLUTION CHART ── -->
  <rect x="16" y="212" width="368" height="130" rx="16" fill="rgba(255,255,255,0.03)" stroke="rgba(255,255,255,0.07)" stroke-width="1"/>
  <text x="32" y="236" fill="#E2E8F0" font-size="13" font-weight="700">Evolución semanal</text>
  <text x="368" y="236" text-anchor="end" fill="#818CF8" font-size="10">últimas 4 semanas</text>

  <!-- Line chart simplified -->
  <polyline points="48,306 112,288 176,296 240,270 304,278 352,262" fill="none" stroke="#4F46E5" stroke-width="2.5" stroke-linejoin="round"/>
  <polyline points="48,306 112,288 176,296 240,270 304,278 352,262" fill="none" stroke="rgba(79,70,229,0.15)" stroke-width="20"/>
  <!-- Dots -->
  <circle cx="48"  cy="306" r="4" fill="#4F46E5"/>
  <circle cx="112" cy="288" r="4" fill="#4F46E5"/>
  <circle cx="176" cy="296" r="4" fill="#4F46E5"/>
  <circle cx="240" cy="270" r="4" fill="#4F46E5"/>
  <circle cx="304" cy="278" r="4" fill="#4F46E5"/>
  <circle cx="352" cy="262" r="5" fill="#7C3AED" stroke="rgba(124,58,237,0.3)" stroke-width="8"/>
  <!-- Labels -->
  <text x="48"  y="326" text-anchor="middle" fill="#64748B" font-size="9">S1</text>
  <text x="112" y="326" text-anchor="middle" fill="#64748B" font-size="9">S2</text>
  <text x="176" y="326" text-anchor="middle" fill="#64748B" font-size="9">S3</text>
  <text x="240" y="326" text-anchor="middle" fill="#64748B" font-size="9">S4</text>
  <text x="304" y="326" text-anchor="middle" fill="#64748B" font-size="9">S5</text>
  <text x="352" y="326" text-anchor="middle" fill="#4F46E5" font-size="9" font-weight="700">Hoy</text>

  <!-- ── PRIORITY DISTRIBUTION ── -->
  <rect x="16" y="354" width="368" height="130" rx="16" fill="rgba(255,255,255,0.03)" stroke="rgba(255,255,255,0.07)" stroke-width="1"/>
  <text x="32" y="378" fill="#E2E8F0" font-size="13" font-weight="700">Por prioridad</text>

  <!-- Donut chart (SVG arcs simplified as segments) -->
  <!-- Using colored arcs arranged as a bar -->
  <rect x="32"  y="392" width="88" height="24" rx="5" fill="#F43F5E"/>
  <rect x="126" y="392" width="70" height="24" rx="5" fill="#F59E0B"/>
  <rect x="202" y="392" width="90" height="24" rx="5" fill="#4F46E5"/>
  <rect x="298" y="392" width="52" height="24" rx="5" fill="#64748B"/>

  <!-- Legend -->
  <circle cx="40"  cy="432" r="5" fill="#F43F5E"/>
  <text x="50"  y="436" fill="#94A3B8" font-size="10">Urgente — 20%</text>
  <circle cx="140" cy="432" r="5" fill="#F59E0B"/>
  <text x="150" y="436" fill="#94A3B8" font-size="10">Alta — 17%</text>
  <circle cx="40"  cy="454" r="5" fill="#4F46E5"/>
  <text x="50"  y="458" fill="#94A3B8" font-size="10">Media — 43%</text>
  <circle cx="140" cy="454" r="5" fill="#64748B"/>
  <text x="150" y="458" fill="#94A3B8" font-size="10">Baja — 20%</text>
  <text x="310" y="436" fill="#34D399" font-size="11" font-weight="700">42 total</text>
  <text x="310" y="454" fill="#64748B" font-size="10">completadas</text>

  <!-- ── COMPLETED TASK LIST ── -->
  <text x="16" y="508" fill="#E2E8F0" font-size="14" font-weight="700">Tareas completadas</text>
  <text x="384" y="508" text-anchor="end" fill="#818CF8" font-size="11">Ver todas</text>

  <!-- Task done 1 -->
  <rect x="16" y="518" width="368" height="58" rx="14" fill="rgba(255,255,255,0.03)" stroke="rgba(255,255,255,0.06)" stroke-width="1"/>
  <rect x="16" y="518" width="4"   height="58" rx="2" fill="#10B981"/>
  <circle cx="38" cy="547" r="11" fill="rgba(16,185,129,0.3)" stroke="#10B981" stroke-width="1.5"/>
  <text x="38" y="551" text-anchor="middle" fill="#34D399" font-size="11">✓</text>
  <text x="58" y="540" fill="#94A3B8" font-size="13" font-weight="500" text-decoration="line-through">Ordenar carpetas drive</text>
  <text x="58" y="558" fill="#475569" font-size="10">Hoy 09:12 · 25 min</text>
  <rect x="316" y="532" width="38" height="14" rx="7" fill="rgba(79,70,229,0.2)"/>
  <text x="335" y="543" text-anchor="middle" fill="#818CF8" font-size="8">MEDIA</text>

  <!-- Task done 2 -->
  <rect x="16" y="584" width="368" height="58" rx="14" fill="rgba(255,255,255,0.03)" stroke="rgba(255,255,255,0.06)" stroke-width="1"/>
  <rect x="16" y="584" width="4"   height="58" rx="2" fill="#10B981"/>
  <circle cx="38" cy="613" r="11" fill="rgba(16,185,129,0.3)" stroke="#10B981" stroke-width="1.5"/>
  <text x="38" y="617" text-anchor="middle" fill="#34D399" font-size="11">✓</text>
  <text x="58" y="606" fill="#94A3B8" font-size="13" font-weight="500" text-decoration="line-through">Enviar reporte semanal</text>
  <text x="58" y="624" fill="#475569" font-size="10">Ayer 17:45 · 40 min</text>
  <rect x="304" y="598" width="50" height="14" rx="7" fill="rgba(245,158,11,0.2)"/>
  <text x="329" y="609" text-anchor="middle" fill="#FBBF24" font-size="8">ALTA</text>

  <!-- Task done 3 -->
  <rect x="16" y="650" width="368" height="58" rx="14" fill="rgba(255,255,255,0.03)" stroke="rgba(255,255,255,0.06)" stroke-width="1"/>
  <rect x="16" y="650" width="4"   height="58" rx="2" fill="#10B981"/>
  <circle cx="38" cy="679" r="11" fill="rgba(16,185,129,0.3)" stroke="#10B981" stroke-width="1.5"/>
  <text x="38" y="683" text-anchor="middle" fill="#34D399" font-size="11">✓</text>
  <text x="58" y="672" fill="#94A3B8" font-size="13" font-weight="500" text-decoration="line-through">Revisar facturas proveedor</text>
  <text x="58" y="690" fill="#475569" font-size="10">Ayer 14:20 · 15 min</text>
  <rect x="304" y="664" width="50" height="14" rx="7" fill="rgba(79,70,229,0.2)"/>
  <text x="329" y="675" text-anchor="middle" fill="#818CF8" font-size="8">MEDIA</text>

  <!-- Bottom Nav -->
  <rect x="0" y="762" width="400" height="98" fill="url(#navGrad)"/>
  <rect x="0" y="762" width="400" height="1" fill="rgba(255,255,255,0.06)"/>
  <text x="53"  y="796" text-anchor="middle" font-size="18">📊</text>
  <text x="53"  y="814" text-anchor="middle" fill="#475569" font-size="9">Inicio</text>
  <text x="126" y="796" text-anchor="middle" font-size="18">✅</text>
  <text x="126" y="814" text-anchor="middle" fill="#475569" font-size="9">Tareas</text>
  <circle cx="200" cy="786" r="26" fill="url(#indigo)" stroke="rgba(255,255,255,0.1)" stroke-width="1.5"/>
  <text x="200" y="793" text-anchor="middle" fill="#fff" font-size="22" font-weight="300">+</text>
  <text x="274" y="796" text-anchor="middle" font-size="18">📅</text>
  <text x="274" y="814" text-anchor="middle" fill="#475569" font-size="9">Calendario</text>
  <text x="350" y="796" text-anchor="middle" font-size="18">⚙️</text>
  <text x="350" y="814" text-anchor="middle" fill="#475569" font-size="9">Config</text>

  <rect x="140" y="4" width="120" height="6" rx="3" fill="rgba(255,255,255,0.15)"/>
  <text x="200" y="840" text-anchor="middle" fill="#1E293B" font-size="11">FlowTime — Historial</text>
</svg>
