<svg viewBox="0 0 1280 800" xmlns="http://www.w3.org/2000/svg" font-family="'Segoe UI', system-ui, sans-serif">
  <defs>
    <linearGradient id="bg" x1="0%" y1="0%" x2="100%" y2="100%">
      <stop offset="0%" style="stop-color:#0A0A1A"/>
      <stop offset="55%" style="stop-color:#0D0D26"/>
      <stop offset="100%" style="stop-color:#120A2E"/>
    </linearGradient>
    <linearGradient id="indigo" x1="0%" y1="0%" x2="100%" y2="100%">
      <stop offset="0%" style="stop-color:#4F46E5"/>
      <stop offset="100%" style="stop-color:#7C3AED"/>
    </linearGradient>
    <linearGradient id="navPill" x1="0%" y1="0%" x2="0%" y2="100%">
      <stop offset="0%" style="stop-color:rgba(20,20,48,0.92)"/>
      <stop offset="100%" style="stop-color:rgba(10,10,28,0.96)"/>
    </linearGradient>
    <filter id="glow"><feGaussianBlur stdDeviation="45"/></filter>
    <filter id="pillGlow"><feGaussianBlur stdDeviation="16"/></filter>
    <filter id="softShadow"><feGaussianBlur stdDeviation="8"/></filter>
  </defs>

  <!-- Browser chrome -->
  <rect width="1280" height="800" fill="#12121f" rx="12"/>
  <rect x="0" y="0" width="1280" height="34" fill="#0c0c1a" rx="12"/>
  <rect x="0" y="22" width="1280" height="12" fill="#0c0c1a"/>
  <circle cx="14" cy="17" r="5" fill="#F43F5E" opacity="0.7"/>
  <circle cx="30" cy="17" r="5" fill="#F59E0B" opacity="0.7"/>
  <circle cx="46" cy="17" r="5" fill="#10B981" opacity="0.7"/>
  <rect x="360" y="6" width="560" height="20" rx="10" fill="rgba(255,255,255,0.05)"/>
  <text x="640" y="20" text-anchor="middle" fill="#334155" font-size="10">flowtime.app/tasks</text>

  <!-- App bg -->
  <rect x="0" y="34" width="1280" height="766" fill="url(#bg)"/>
  <circle cx="900"  cy="200" r="200" fill="rgba(79,70,229,0.10)" filter="url(#glow)"/>
  <circle cx="300"  cy="500" r="180" fill="rgba(124,58,237,0.07)" filter="url(#glow)"/>

  <!-- ══ TOP BAR ══ -->
  <rect x="0" y="34" width="1280" height="60" fill="rgba(8,8,22,0.7)"/>
  <rect x="0" y="93" width="1280" height="1" fill="rgba(255,255,255,0.05)"/>
  <circle cx="44" cy="64" r="16" fill="url(#indigo)"/>
  <text x="44" y="70" text-anchor="middle" fill="#fff" font-size="13" font-weight="800">F</text>
  <text x="70" y="68" fill="#E2E8F0" font-size="16" font-weight="800">FlowTime</text>
  <rect x="440" y="46" width="400" height="34" rx="17" fill="rgba(255,255,255,0.05)" stroke="rgba(255,255,255,0.08)" stroke-width="1"/>
  <text x="468" y="67" fill="#475569" font-size="13">🔍</text>
  <text x="490" y="67" fill="#334155" font-size="12">Buscar tarea...</text>
  <text x="826" y="67" text-anchor="end" fill="#334155" font-size="10">⌘K</text>
  <rect x="1148" y="48" width="104" height="32" rx="10" fill="url(#indigo)"/>
  <text x="1200" y="69" text-anchor="middle" fill="#fff" font-size="12" font-weight="700">+ Nueva tarea</text>
  <circle cx="1264" cy="64" r="18" fill="url(#indigo)" stroke="#4F46E5" stroke-width="1.5"/>
  <text x="1264" y="69" text-anchor="middle" fill="#fff" font-size="12" font-weight="700">V</text>

  <!-- ══ PAGE HEADER ══ -->
  <text x="64" y="136" fill="#E2E8F0" font-size="28" font-weight="800">Mis Tareas</text>
  <text x="64" y="158" fill="#64748B" font-size="12">10 tareas activas · 2 urgentes · 1 en progreso</text>

  <!-- Filter pills -->
  <rect x="64"  y="172" width="64" height="28" rx="14" fill="url(#indigo)"/>
  <text x="96"  y="191" text-anchor="middle" fill="#fff" font-size="11" font-weight="700">Todas</text>

  <rect x="136" y="172" width="76" height="28" rx="14" fill="rgba(244,63,94,0.14)" stroke="rgba(244,63,94,0.3)" stroke-width="1"/>
  <text x="174" y="191" text-anchor="middle" fill="#FB7185" font-size="11">🔴 Urgentes</text>

  <rect x="220" y="172" width="66" height="28" rx="14" fill="rgba(255,255,255,0.05)" stroke="rgba(255,255,255,0.08)" stroke-width="1"/>
  <text x="253" y="191" text-anchor="middle" fill="#64748B" font-size="11">📅 Hoy</text>

  <rect x="294" y="172" width="88" height="28" rx="14" fill="rgba(255,255,255,0.05)" stroke="rgba(255,255,255,0.08)" stroke-width="1"/>
  <text x="338" y="191" text-anchor="middle" fill="#64748B" font-size="11">▶ En progreso</text>

  <rect x="390" y="172" width="96" height="28" rx="14" fill="rgba(255,255,255,0.05)" stroke="rgba(255,255,255,0.08)" stroke-width="1"/>
  <text x="438" y="191" text-anchor="middle" fill="#64748B" font-size="11">✅ Completadas</text>

  <!-- Sort right -->
  <rect x="1100" y="172" width="116" height="28" rx="14" fill="rgba(255,255,255,0.05)" stroke="rgba(255,255,255,0.08)" stroke-width="1"/>
  <text x="1158" y="191" text-anchor="middle" fill="#64748B" font-size="11">↕ Prioridad</text>

  <!-- View toggle -->
  <rect x="1224" y="172" width="28" height="28" rx="8" fill="rgba(79,70,229,0.25)" stroke="rgba(79,70,229,0.4)" stroke-width="1"/>
  <text x="1238" y="191" text-anchor="middle" fill="#818CF8" font-size="13">☰</text>

  <line x1="64" y1="210" x2="1216" y2="210" stroke="rgba(255,255,255,0.05)" stroke-width="1"/>

  <!-- ══ TASK GRID — 3 COLUMNS ══ -->

  <!-- COL 1: URGENTE -->
  <text x="64" y="236" fill="#FB7185" font-size="12" font-weight="700" letter-spacing="1">🔴 URGENTE · 2</text>

  <!-- Task U1 -->
  <rect x="64" y="248" width="356" height="96" rx="16" fill="rgba(244,63,94,0.09)" stroke="rgba(244,63,94,0.22)" stroke-width="1"/>
  <rect x="64" y="248" width="4" height="96" rx="2" fill="#F43F5E"/>
  <circle cx="92" cy="280" r="13" fill="transparent" stroke="rgba(244,63,94,0.5)" stroke-width="1.5"/>
  <text x="120" y="272" fill="#E2E8F0" font-size="14" font-weight="600">Llamar al banco</text>
  <text x="120" y="290" fill="#64748B" font-size="11">Vence hoy a las 10:00</text>
  <rect x="120" y="300" width="44" height="16" rx="8" fill="rgba(245,158,11,0.2)"/>
  <text x="142" y="312" text-anchor="middle" fill="#FBBF24" font-size="9">finanzas</text>
  <text x="405" y="270" text-anchor="end" fill="#64748B" font-size="16">···</text>
  <text x="405" y="335" text-anchor="end" fill="#64748B" font-size="10">⏰ 9:30</text>

  <!-- Task U2 -->
  <rect x="64" y="352" width="356" height="96" rx="16" fill="rgba(244,63,94,0.09)" stroke="rgba(244,63,94,0.22)" stroke-width="1"/>
  <rect x="64" y="352" width="4" height="96" rx="2" fill="#F43F5E"/>
  <circle cx="92" cy="384" r="13" fill="transparent" stroke="rgba(244,63,94,0.5)" stroke-width="1.5"/>
  <text x="120" y="376" fill="#E2E8F0" font-size="14" font-weight="600">Enviar informe directorio</text>
  <text x="120" y="394" fill="#64748B" font-size="11">Vence hoy a las 18:00</text>
  <rect x="120" y="404" width="48" height="16" rx="8" fill="rgba(79,70,229,0.2)"/>
  <text x="144" y="416" text-anchor="middle" fill="#818CF8" font-size="9">reportes</text>
  <text x="405" y="374" text-anchor="end" fill="#64748B" font-size="16">···</text>

  <!-- COL 2: ALTA -->
  <text x="460" y="236" fill="#FBBF24" font-size="12" font-weight="700" letter-spacing="1">🟠 ALTA · 3</text>

  <rect x="460" y="248" width="356" height="96" rx="16" fill="rgba(245,158,11,0.08)" stroke="rgba(245,158,11,0.2)" stroke-width="1"/>
  <rect x="460" y="248" width="4" height="96" rx="2" fill="#F59E0B"/>
  <circle cx="488" cy="280" r="13" fill="transparent" stroke="rgba(245,158,11,0.5)" stroke-width="1.5"/>
  <text x="516" y="272" fill="#E2E8F0" font-size="14" font-weight="600">Revisar contrato Empresa X</text>
  <text x="516" y="290" fill="#64748B" font-size="11">Mañana · Legal</text>
  <rect x="516" y="300" width="36" height="16" rx="8" fill="rgba(16,185,129,0.2)"/>
  <text x="534" y="312" text-anchor="middle" fill="#34D399" font-size="9">legal</text>
  <text x="801" y="270" text-anchor="end" fill="#64748B" font-size="16">···</text>

  <!-- In progress -->
  <rect x="460" y="352" width="356" height="96" rx="16" fill="rgba(14,165,233,0.08)" stroke="rgba(14,165,233,0.2)" stroke-width="1"/>
  <rect x="460" y="352" width="4" height="96" rx="2" fill="#0EA5E9"/>
  <circle cx="488" cy="384" r="13" fill="rgba(14,165,233,0.2)" stroke="#0EA5E9" stroke-width="1.5"/>
  <text x="488" y="388" text-anchor="middle" fill="#38BDF8" font-size="10">▶</text>
  <text x="516" y="376" fill="#E2E8F0" font-size="14" font-weight="600">Preparar presentación Q3</text>
  <text x="516" y="394" fill="#0EA5E9" font-size="11">En progreso · Viernes</text>
  <text x="801" y="374" text-anchor="end" fill="#64748B" font-size="16">···</text>

  <rect x="460" y="456" width="356" height="80" rx="16" fill="rgba(245,158,11,0.06)" stroke="rgba(245,158,11,0.15)" stroke-width="1"/>
  <rect x="460" y="456" width="4" height="80" rx="2" fill="#F59E0B"/>
  <circle cx="488" cy="487" r="13" fill="transparent" stroke="rgba(245,158,11,0.4)" stroke-width="1.5"/>
  <text x="516" y="481" fill="#E2E8F0" font-size="14" font-weight="600">Seguimiento propuesta</text>
  <text x="516" y="499" fill="#64748B" font-size="11">Esta semana</text>
  <text x="801" y="481" text-anchor="end" fill="#64748B" font-size="16">···</text>

  <!-- COL 3: MEDIA + BAJA -->
  <text x="856" y="236" fill="#818CF8" font-size="12" font-weight="700" letter-spacing="1">🔵 MEDIA · 3</text>

  <rect x="856" y="248" width="356" height="80" rx="16" fill="rgba(79,70,229,0.07)" stroke="rgba(79,70,229,0.18)" stroke-width="1"/>
  <rect x="856" y="248" width="4" height="80" rx="2" fill="#4F46E5"/>
  <circle cx="884" cy="280" r="13" fill="transparent" stroke="rgba(79,70,229,0.4)" stroke-width="1.5"/>
  <text x="912" y="274" fill="#E2E8F0" font-size="14" font-weight="600">Agendar reunión equipo TI</text>
  <text x="912" y="292" fill="#64748B" font-size="11">Sin fecha</text>
  <text x="1197" y="274" text-anchor="end" fill="#64748B" font-size="16">···</text>

  <!-- Completed -->
  <rect x="856" y="336" width="356" height="80" rx="16" fill="rgba(255,255,255,0.03)" stroke="rgba(255,255,255,0.06)" stroke-width="1"/>
  <rect x="856" y="336" width="4" height="80" rx="2" fill="#10B981"/>
  <circle cx="884" cy="367" r="13" fill="rgba(16,185,129,0.3)" stroke="#10B981" stroke-width="1.5"/>
  <text x="884" y="371" text-anchor="middle" fill="#34D399" font-size="12">✓</text>
  <text x="912" y="360" fill="#475569" font-size="14" font-weight="600" text-decoration="line-through">Ordenar carpetas drive</text>
  <text x="912" y="378" fill="#374151" font-size="11">Completada hoy</text>

  <rect x="856" y="424" width="356" height="80" rx="16" fill="rgba(79,70,229,0.05)" stroke="rgba(79,70,229,0.14)" stroke-width="1"/>
  <rect x="856" y="424" width="4" height="80" rx="2" fill="#4F46E5"/>
  <circle cx="884" cy="455" r="13" fill="transparent" stroke="rgba(79,70,229,0.35)" stroke-width="1.5"/>
  <text x="912" y="449" fill="#E2E8F0" font-size="14" font-weight="600">Actualizar doc. interna</text>
  <text x="912" y="467" fill="#64748B" font-size="11">Viernes</text>
  <text x="1197" y="449" text-anchor="end" fill="#64748B" font-size="16">···</text>

  <text x="856" y="528" fill="#64748B" font-size="12" font-weight="700" letter-spacing="1">⚪ BAJA · 2</text>

  <rect x="856" y="540" width="356" height="68" rx="16" fill="rgba(255,255,255,0.02)" stroke="rgba(255,255,255,0.05)" stroke-width="1"/>
  <rect x="856" y="540" width="4" height="68" rx="2" fill="#334155"/>
  <circle cx="884" cy="567" r="10" fill="transparent" stroke="rgba(100,116,139,0.3)" stroke-width="1.5"/>
  <text x="908" y="563" fill="#64748B" font-size="13">Revisar suscripciones software</text>
  <text x="908" y="581" fill="#374151" font-size="10">Sin fecha</text>
  <text x="1197" y="565" text-anchor="end" fill="#475569" font-size="16">···</text>

  <rect x="856" y="616" width="356" height="68" rx="16" fill="rgba(255,255,255,0.02)" stroke="rgba(255,255,255,0.05)" stroke-width="1"/>
  <rect x="856" y="616" width="4" height="68" rx="2" fill="#334155"/>
  <circle cx="884" cy="643" r="10" fill="transparent" stroke="rgba(100,116,139,0.3)" stroke-width="1.5"/>
  <text x="908" y="639" fill="#64748B" font-size="13">Organizar fotos servidor</text>
  <text x="908" y="657" fill="#374151" font-size="10">Sin urgencia</text>
  <text x="1197" y="641" text-anchor="end" fill="#475569" font-size="16">···</text>

  <!-- ══ FLOATING PILL NAV ══ -->
  <ellipse cx="640" cy="768" rx="280" ry="20" fill="rgba(79,70,229,0.25)" filter="url(#pillGlow)"/>
  <rect x="316" y="740" width="648" height="58" rx="29" fill="rgba(0,0,0,0.5)" filter="url(#softShadow)"/>
  <rect x="320" y="736" width="640" height="56" rx="28" fill="url(#navPill)" stroke="rgba(255,255,255,0.10)" stroke-width="1"/>
  <rect x="321" y="737" width="638" height="28" rx="28" fill="rgba(255,255,255,0.03)"/>

  <!-- Dashboard -->
  <text x="377" y="762" text-anchor="middle" font-size="16">📊</text>
  <text x="377" y="778" text-anchor="middle" fill="#475569" font-size="9">Inicio</text>

  <!-- Tareas (active) -->
  <rect x="426" y="740" width="108" height="48" rx="18" fill="rgba(79,70,229,0.28)" stroke="rgba(79,70,229,0.5)" stroke-width="1"/>
  <text x="480" y="762" text-anchor="middle" font-size="16">✅</text>
  <text x="480" y="778" text-anchor="middle" fill="#818CF8" font-size="9" font-weight="700">Tareas</text>

  <!-- FAB -->
  <circle cx="640" cy="764" r="26" fill="rgba(79,70,229,0.2)" filter="url(#pillGlow)"/>
  <circle cx="640" cy="764" r="24" fill="url(#indigo)" stroke="rgba(255,255,255,0.15)" stroke-width="1.5"/>
  <text x="640" y="771" text-anchor="middle" fill="#fff" font-size="22" font-weight="300">+</text>

  <!-- Calendario -->
  <text x="800" y="762" text-anchor="middle" font-size="16">📅</text>
  <text x="800" y="778" text-anchor="middle" fill="#475569" font-size="9">Calendario</text>

  <!-- Historial -->
  <text x="880" y="762" text-anchor="middle" font-size="16">📈</text>
  <text x="880" y="778" text-anchor="middle" fill="#475569" font-size="9">Historial</text>

  <!-- Config -->
  <text x="948" y="762" text-anchor="middle" font-size="16">⚙️</text>
  <text x="948" y="778" text-anchor="middle" fill="#475569" font-size="9">Config</text>

  <text x="640" y="796" text-anchor="middle" fill="#1E293B" font-size="10">FlowTime — Tareas (Desktop) v1.1 · 2026</text>
</svg>
