<svg viewBox="0 0 400 780" xmlns="http://www.w3.org/2000/svg" font-family="'Segoe UI', system-ui, sans-serif">
  <defs>
    <linearGradient id="bg" x1="0%" y1="0%" x2="100%" y2="100%">
      <stop offset="0%" style="stop-color:#0A0A1A"/>
      <stop offset="50%" style="stop-color:#0D0D28"/>
      <stop offset="100%" style="stop-color:#120A2E"/>
    </linearGradient>
    <linearGradient id="cardGrad" x1="0%" y1="0%" x2="100%" y2="100%">
      <stop offset="0%" style="stop-color:rgba(79,70,229,0.18)"/>
      <stop offset="100%" style="stop-color:rgba(124,58,237,0.10)"/>
    </linearGradient>
    <linearGradient id="greenCard" x1="0%" y1="0%" x2="100%" y2="100%">
      <stop offset="0%" style="stop-color:rgba(16,185,129,0.18)"/>
      <stop offset="100%" style="stop-color:rgba(5,150,105,0.10)"/>
    </linearGradient>
    <linearGradient id="redCard" x1="0%" y1="0%" x2="100%" y2="100%">
      <stop offset="0%" style="stop-color:rgba(244,63,94,0.18)"/>
      <stop offset="100%" style="stop-color:rgba(225,29,72,0.10)"/>
    </linearGradient>
    <linearGradient id="yellowCard" x1="0%" y1="0%" x2="100%" y2="100%">
      <stop offset="0%" style="stop-color:rgba(245,158,11,0.18)"/>
      <stop offset="100%" style="stop-color:rgba(217,119,6,0.10)"/>
    </linearGradient>
    <linearGradient id="navGrad" x1="0%" y1="0%" x2="0%" y2="100%">
      <stop offset="0%" style="stop-color:rgba(15,15,40,0.95)"/>
      <stop offset="100%" style="stop-color:rgba(10,10,30,0.98)"/>
    </linearGradient>
    <linearGradient id="aurora1" x1="0%" y1="0%" x2="100%" y2="100%">
      <stop offset="0%" style="stop-color:#4F46E5;stop-opacity:0.15"/>
      <stop offset="100%" style="stop-color:#7C3AED;stop-opacity:0"/>
    </linearGradient>
    <linearGradient id="aurora2" x1="100%" y1="0%" x2="0%" y2="100%">
      <stop offset="0%" style="stop-color:#0EA5E9;stop-opacity:0.10"/>
      <stop offset="100%" style="stop-color:#06B6D4;stop-opacity:0"/>
    </linearGradient>
    <filter id="blur1">
      <feGaussianBlur stdDeviation="30"/>
    </filter>
    <filter id="blur2">
      <feGaussianBlur stdDeviation="20"/>
    </filter>
    <clipPath id="phone">
      <rect x="0" y="0" width="400" height="780" rx="40"/>
    </clipPath>
  </defs>

  <!-- Phone frame -->
  <rect width="400" height="780" fill="url(#bg)" rx="40"/>

  <!-- Aurora blobs -->
  <circle cx="80" cy="150" r="120" fill="url(#aurora1)" filter="url(#blur1)" opacity="0.8"/>
  <circle cx="340" cy="300" r="100" fill="url(#aurora2)" filter="url(#blur1)" opacity="0.6"/>

  <!-- Status bar -->
  <text x="24" y="26" fill="#94A3B8" font-size="11" font-weight="600">9:41</text>
  <text x="376" y="26" text-anchor="end" fill="#94A3B8" font-size="11">●●●</text>

  <!-- Header -->
  <text x="24" y="62" fill="#64748B" font-size="12">Domingo, 28 de junio</text>
  <text x="24" y="88" fill="#E2E8F0" font-size="22" font-weight="800">Buenos días, Vicente 👋</text>

  <!-- Avatar -->
  <circle cx="362" cy="72" r="22" fill="rgba(79,70,229,0.3)" stroke="#4F46E5" stroke-width="1.5"/>
  <text x="362" y="78" text-anchor="middle" fill="#818CF8" font-size="14" font-weight="700">V</text>

  <!-- ===== METRICS GRID ===== -->
  <!-- Card 1: Pendientes -->
  <rect x="16" y="108" width="88" height="80" rx="16" fill="url(#cardGrad)" stroke="rgba(79,70,229,0.3)" stroke-width="1"/>
  <text x="60" y="132" text-anchor="middle" fill="#818CF8" font-size="16">📋</text>
  <text x="60" y="156" text-anchor="middle" fill="#E2E8F0" font-size="22" font-weight="800">8</text>
  <text x="60" y="172" text-anchor="middle" fill="#64748B" font-size="9">Pendientes</text>

  <!-- Card 2: Completadas hoy -->
  <rect x="112" y="108" width="88" height="80" rx="16" fill="url(#greenCard)" stroke="rgba(16,185,129,0.3)" stroke-width="1"/>
  <text x="156" y="132" text-anchor="middle" fill="#34D399" font-size="16">✅</text>
  <text x="156" y="156" text-anchor="middle" fill="#E2E8F0" font-size="22" font-weight="800">3</text>
  <text x="156" y="172" text-anchor="middle" fill="#64748B" font-size="9">Completadas</text>

  <!-- Card 3: Urgentes -->
  <rect x="208" y="108" width="88" height="80" rx="16" fill="url(#redCard)" stroke="rgba(244,63,94,0.3)" stroke-width="1"/>
  <text x="252" y="132" text-anchor="middle" fill="#FB7185" font-size="16">🔴</text>
  <text x="252" y="156" text-anchor="middle" fill="#E2E8F0" font-size="22" font-weight="800">2</text>
  <text x="252" y="172" text-anchor="middle" fill="#64748B" font-size="9">Urgentes</text>

  <!-- Card 4: Racha -->
  <rect x="304" y="108" width="80" height="80" rx="16" fill="url(#yellowCard)" stroke="rgba(245,158,11,0.3)" stroke-width="1"/>
  <text x="344" y="132" text-anchor="middle" fill="#FBBF24" font-size="16">🔥</text>
  <text x="344" y="156" text-anchor="middle" fill="#E2E8F0" font-size="22" font-weight="800">5</text>
  <text x="344" y="172" text-anchor="middle" fill="#64748B" font-size="9">Días racha</text>

  <!-- ===== ACTIVITY CHART ===== -->
  <rect x="16" y="202" width="368" height="120" rx="16" fill="rgba(255,255,255,0.04)" stroke="rgba(255,255,255,0.08)" stroke-width="1"/>
  <text x="32" y="226" fill="#E2E8F0" font-size="13" font-weight="700">Actividad semanal</text>
  <text x="352" y="226" text-anchor="end" fill="#818CF8" font-size="10">últimos 7 días</text>

  <!-- Chart bars -->
  <!-- Day labels -->
  <text x="52" y="308" text-anchor="middle" fill="#64748B" font-size="9">L</text>
  <text x="104" y="308" text-anchor="middle" fill="#64748B" font-size="9">M</text>
  <text x="156" y="308" text-anchor="middle" fill="#64748B" font-size="9">X</text>
  <text x="208" y="308" text-anchor="middle" fill="#64748B" font-size="9">J</text>
  <text x="260" y="308" text-anchor="middle" fill="#64748B" font-size="9">V</text>
  <text x="312" y="308" text-anchor="middle" fill="#64748B" font-size="9">S</text>
  <text x="364" y="308" text-anchor="middle" fill="#4F46E5" font-size="9" font-weight="700">H</text>

  <!-- Bars -->
  <rect x="36" y="265" width="32" height="35" rx="6" fill="rgba(79,70,229,0.4)"/>
  <rect x="88" y="252" width="32" height="48" rx="6" fill="rgba(79,70,229,0.4)"/>
  <rect x="140" y="272" width="32" height="28" rx="6" fill="rgba(79,70,229,0.4)"/>
  <rect x="192" y="244" width="32" height="56" rx="6" fill="rgba(79,70,229,0.4)"/>
  <rect x="244" y="258" width="32" height="42" rx="6" fill="rgba(79,70,229,0.4)"/>
  <rect x="296" y="278" width="32" height="22" rx="6" fill="rgba(79,70,229,0.25)"/>
  <rect x="348" y="249" width="32" height="51" rx="6" fill="url(#cardGrad)" stroke="#4F46E5" stroke-width="1.5"/>
  <!-- Values on top of today -->
  <text x="364" y="246" text-anchor="middle" fill="#818CF8" font-size="9" font-weight="700">3</text>

  <!-- ===== UPCOMING TASKS ===== -->
  <text x="24" y="348" fill="#E2E8F0" font-size="14" font-weight="700">Tareas prioritarias</text>
  <text x="376" y="348" text-anchor="end" fill="#818CF8" font-size="11">Ver todas</text>

  <!-- Task 1 URGENTE -->
  <rect x="16" y="358" width="368" height="58" rx="14" fill="rgba(244,63,94,0.10)" stroke="rgba(244,63,94,0.25)" stroke-width="1"/>
  <rect x="16" y="358" width="4" height="58" rx="2" fill="#F43F5E"/>
  <text x="32" y="382" fill="#E2E8F0" font-size="13" font-weight="600">Llamar al banco</text>
  <rect x="32" y="388" width="52" height="16" rx="8" fill="rgba(244,63,94,0.25)"/>
  <text x="58" y="400" text-anchor="middle" fill="#FB7185" font-size="9" font-weight="700">URGENTE</text>
  <text x="368" y="395" text-anchor="end" fill="#64748B" font-size="10">Hoy 10:00</text>
  <circle cx="374" cy="382" r="10" fill="rgba(255,255,255,0.05)" stroke="rgba(255,255,255,0.1)" stroke-width="1"/>
  <text x="374" y="386" text-anchor="middle" fill="#64748B" font-size="10">○</text>

  <!-- Task 2 ALTA -->
  <rect x="16" y="424" width="368" height="58" rx="14" fill="rgba(245,158,11,0.08)" stroke="rgba(245,158,11,0.2)" stroke-width="1"/>
  <rect x="16" y="424" width="4" height="58" rx="2" fill="#F59E0B"/>
  <text x="32" y="448" fill="#E2E8F0" font-size="13" font-weight="600">Revisar contrato Empresa X</text>
  <rect x="32" y="454" width="36" height="16" rx="8" fill="rgba(245,158,11,0.25)"/>
  <text x="50" y="466" text-anchor="middle" fill="#FBBF24" font-size="9" font-weight="700">ALTA</text>
  <text x="368" y="461" text-anchor="end" fill="#64748B" font-size="10">Mañana</text>
  <circle cx="374" cy="448" r="10" fill="rgba(255,255,255,0.05)" stroke="rgba(255,255,255,0.1)" stroke-width="1"/>
  <text x="374" y="452" text-anchor="middle" fill="#64748B" font-size="10">○</text>

  <!-- Task 3 MEDIA -->
  <rect x="16" y="490" width="368" height="58" rx="14" fill="rgba(255,255,255,0.04)" stroke="rgba(255,255,255,0.08)" stroke-width="1"/>
  <rect x="16" y="490" width="4" height="58" rx="2" fill="#4F46E5"/>
  <text x="32" y="514" fill="#E2E8F0" font-size="13" font-weight="600">Preparar presentación Q3</text>
  <rect x="32" y="520" width="38" height="16" rx="8" fill="rgba(79,70,229,0.25)"/>
  <text x="51" y="532" text-anchor="middle" fill="#818CF8" font-size="9" font-weight="700">MEDIA</text>
  <text x="368" y="527" text-anchor="end" fill="#64748B" font-size="10">Viernes</text>
  <circle cx="374" cy="514" r="10" fill="rgba(255,255,255,0.05)" stroke="rgba(255,255,255,0.1)" stroke-width="1"/>

  <!-- ===== UPCOMING EVENT ===== -->
  <text x="24" y="572" fill="#E2E8F0" font-size="14" font-weight="700">Próximo evento</text>

  <rect x="16" y="582" width="368" height="64" rx="14" fill="rgba(14,165,233,0.10)" stroke="rgba(14,165,233,0.25)" stroke-width="1"/>
  <text x="32" y="606" fill="#E2E8F0" font-size="13" font-weight="600">📅 Reunión con equipo</text>
  <text x="32" y="624" fill="#64748B" font-size="11">Hoy a las 14:00  ·  Sala 3</text>
  <rect x="310" y="594" width="58" height="40" rx="10" fill="rgba(14,165,233,0.2)" stroke="#0EA5E9" stroke-width="1"/>
  <text x="339" y="610" text-anchor="middle" fill="#38BDF8" font-size="10" font-weight="700">HOY</text>
  <text x="339" y="624" text-anchor="middle" fill="#38BDF8" font-size="11" font-weight="800">14:00</text>

  <!-- ===== BOTTOM NAV ===== -->
  <rect x="0" y="682" width="400" height="98" fill="url(#navGrad)"/>
  <rect x="0" y="682" width="400" height="1" fill="rgba(255,255,255,0.06)"/>

  <!-- Nav items -->
  <!-- Dashboard (active) -->
  <rect x="24" y="692" width="58" height="52" rx="14" fill="rgba(79,70,229,0.25)" stroke="rgba(79,70,229,0.4)" stroke-width="1"/>
  <text x="53" y="716" text-anchor="middle" font-size="18">📊</text>
  <text x="53" y="734" text-anchor="middle" fill="#818CF8" font-size="9" font-weight="700">Inicio</text>

  <!-- Tareas -->
  <text x="126" y="716" text-anchor="middle" font-size="18">✅</text>
  <text x="126" y="734" text-anchor="middle" fill="#475569" font-size="9">Tareas</text>

  <!-- Calendar (FAB center) -->
  <circle cx="200" cy="706" r="26" fill="url(#cardGrad)" stroke="#4F46E5" stroke-width="1.5"/>
  <text x="200" y="713" text-anchor="middle" font-size="20">+</text>

  <!-- Calendario -->
  <text x="274" y="716" text-anchor="middle" font-size="18">📅</text>
  <text x="274" y="734" text-anchor="middle" fill="#475569" font-size="9">Calendario</text>

  <!-- Settings -->
  <text x="350" y="716" text-anchor="middle" font-size="18">⚙️</text>
  <text x="350" y="734" text-anchor="middle" fill="#475569" font-size="9">Config</text>

  <!-- Label at top -->
  <rect x="140" y="4" width="120" height="6" rx="3" fill="rgba(255,255,255,0.15)"/>
  <text x="200" y="760" text-anchor="middle" fill="#1E293B" font-size="11">FlowTime — Dashboard</text>
</svg>
